{
.appVersion = "3098";
.storedFileType = org.unifiedfontobject.ufo;
.formatVersion = 3;
customParameters = (
{
name = macintoshFONDName;
value = "Cooperativa Sans";
},
{
name = preferredFamilyName;
value = "Cooperativa Sans";
},
{
name = uniqueID;
value = "FontForge : Cooperativa Sans Regular : 5-9-2021";
},
{
name = versionString;
value = "Version 1.000";
},
{
name = codePageRanges;
value = (
);
},
{
name = openTypeOS2FamilyClass;
value = (
0,
0
);
},
{
name = panose;
value = (
2,
0,
5,
3,
0,
0,
0,
0,
0,
0
);
},
{
name = openTypeOS2SubscriptXOffset;
value = 0;
},
{
name = openTypeOS2SubscriptXSize;
value = 650;
},
{
name = openTypeOS2SubscriptYOffset;
value = 140;
},
{
name = openTypeOS2SubscriptYSize;
value = 699;
},
{
name = openTypeOS2SuperscriptXOffset;
value = 0;
},
{
name = openTypeOS2SuperscriptXSize;
value = 650;
},
{
name = openTypeOS2SuperscriptYOffset;
value = 479;
},
{
name = openTypeOS2SuperscriptYSize;
value = 699;
},
{
name = fsType;
value = (
);
},
{
name = unicodeRanges;
value = (
0,
1,
5
);
},
{
name = vendorID;
value = PfEd;
},
{
name = blueFuzz;
value = 1;
}
);
date = "2021-09-29 01:52:07 +0000";
familyName = "Cooperativa Sans";
featurePrefixes = (
{
automatic = 1;
code = "languagesystem DFLT dflt;
";
name = Languagesystems;
}
);
features = (
{
automatic = 1;
code = "feature ss01;
";
tag = aalt;
},
{
automatic = 1;
code = "lookup ccmp_Other_1 {
	@CombiningTopAccents = [acutecomb dieresiscomb tildecomb];
	sub [i]' @CombiningTopAccents by [idotless];
} ccmp_Other_1;
";
tag = ccmp;
},
{
automatic = 1;
code = "sub Q by Q.ss01;
sub g by g.ss01;
";
tag = ss01;
}
);
fontMaster = (
{
customParameters = (
{
name = typoAscender;
value = 800;
},
{
name = typoDescender;
value = -200;
},
{
name = typoLineGap;
value = 0;
},
{
name = hheaAscender;
value = 0;
},
{
name = hheaDescender;
value = 0;
},
{
name = hheaLineGap;
value = 0;
},
{
name = winAscent;
value = 1050;
},
{
name = winDescent;
value = 450;
},
{
name = strikeoutPosition;
value = 258;
},
{

glyphs = (
{
glyphname = A;
kernLeft = A;
kernRight = A;
lastChange = "2021-09-29 08:42:22 +0000";
layers = (
{
anchors = (
{
name = bottom;
pos = (324,0);
},
{
name = ogonek;
pos = (580,10);
},
{
name = top;
pos = (324,750);
}
);
layerId = master01;
shapes = (
{
closed = 1;
nodes = (
(604,0,l),
(555,128,o),
(429,520,o),
(361,750,c),
(269,750,l),
(344,520,o),
(462,135,o),
(493,0,c)
);
},
{
closed = 1;
nodes = (
(126,0,l),
(157,135,o),
(275,520,o),
(350,750,c),
(258,750,l),
(190,520,o),
(64,128,o),
(15,0,c)
);
},
{
closed = 1;
nodes = (
(152,242,o),
(309,242,o),
(309,242,c),
(309,242,o),
(466,242,o),
(486,240,c),
(488,288,ls),
(489,303,o),
(487,316,o),
(486,328,c),
(486,328,o),
(453,321,o),
(375,321,cs),
(224,321,ls),
(176,321,o),
(132,328,o),
(132,328,c),
(131,316,o),
(131,303,o),
(131,288,cs),
(131,273,o),
(131,257,o),
(132,240,c)
);
}
);
width = 619;
}
);
unicode = 65;
},
{
glyphname = B;
layers = (
{
anchors = (
{
name = bottom;
pos = (295,0);
},
{
name = center;
pos = (295,375);
},
{
name = top;
pos = (295,750);
}
);
layerId = master01;
shapes = (
{
closed = 1;
nodes = (
(412,-15,o),
(540,56,o),
(540,216,cs),
(540,358,o),
(419,440,o),
(221,440,cs),
(146,440,l),
(146,364,l),
(264,364,ls),
(374,364,o),
(435,324,o),
(435,222,cs),
(435,116,o),
(372,64,o),
(254,64,cs),
(119,64,l),
(73,0,l),
(73,0,o),
(126,-15,o),
(242,-15,cs)
);
},
{
closed = 1;
nodes = (
(182,0,l),
(182,0,o),
(175,137,o),
(175,335,cs),
(175,415,ls),
(175,616,o),
(185,750,o),
(185,750,c),
(70,750,l),
(70,750,o),
(80,616,o),
(80,415,cs),
(80,335,ls),
(80,137,o),
(73,0,o),
(73,0,c)
);
},
{
closed = 1;
nodes = (
(275,364,o),
(489,375,o),
(489,556,cs),
(489,687,o),
(391,766,o),
(227,766,cs),
(120,766,o),
(70,750,o),
(70,750,c),
(136,686,l),
(222,686,ls),
(337,686,o),
(384,648,o),
(384,556,cs),
(384,468,o),
(324,440,o),
(240,440,cs),
(135,440,l),
(106,408,l),
(106,408,o),
(130,364,o),
(202,364,cs)
);
}
);
width = 590;
}
);
unicode = 66;
},
{
glyphname = C;
kernLeft = O;
lastChange = "2021-09-29 07:59:22 +0000";
layers = (
{
layerId = master01;
shapes = (
{
closed = 1;
nodes = (
(453,-15,o),
(544,15,o),
(587,53,c),
(587,91,o),
(573,129,o),
(553,141,c),
(506,105,o),
(431,73,o),
(365,73,cs),
(237,73,o),
(155,181,o),
(155,368,cs),
(155,566,o),
(243,683,o),
(382,683,cs),
(436,683,o),
(492,665,o),
(523,639,c),
(535,648,o),
(560,695,o),
(560,723,c),
(524,749,o),
(454,766,o),
(385,766,cs),
(175,766,o),
(50,606,o),
(50,365,cs),
(50,125,o),
(173,-15,o),
(364,-15,cs)
);
}
);
width = 632;
}
);
unicode = 67;
},
{
glyphname = D;
layers = (
{
anchors = (
{
name = bottom;
pos = (334,0);
},
{
name = center;
pos = (334,375);
},
{
name = top;
pos = (334,750);
}
);
layerId = master01;
shapes = (
{
closed = 1;
nodes = (
(416,-16,o),
(605,67,o),
(605,375,cs),
(605,682,o),
(416,766,o),
(239,766,cs),
(135,766,o),
(68,750,o),
(68,750,c),
(103,656,l),
(103,656,o),
(168,686,o),
(254,686,cs),
(395,686,o),
(504,572,o),
(504,375,cs),
(504,168,o),
(404,64,o),
(254,64,cs),
(168,64,o),
(104,84,o),
(104,84,c),
(71,0,l),
(71,0,o),
(135,-16,o),
(239,-16,cs)
);
},
{
closed = 1;
nodes = (
(180,0,l),
(180,0,o),
(173,137,o),
(173,335,cs),
(173,415,ls),
(173,616,o),
(183,750,o),
(183,750,c),
(68,750,l),
(68,750,o),
(78,616,o),
(78,415,cs),
(78,335,ls),
(78,137,o),
(71,0,o),
(71,0,c)
);
}
);
width = 655;
}
);
unicode = 68;
},
{
glyphname = E;
layers = (
{
anchors = (
{
name = bottom;
pos = (257,0);
},
{
name = ogonek;
pos = (456,10);
},
{
name = top;
pos = (257,750);
},
{
name = topleft;
pos = (28,750);
}
);
background = {
shapes = (
{
closed = 1;
nodes = (
(409,414,o),
(410,401,o),
(410,386,cs),
(410,371,o),
(409,355,o),
(408,338,c),
(388,340,o),
(306,342,o),
(161,344,c),
(161,78,l),
(373,78,o),
(422,84,o),
(453,99,c),
(453,99,o),
(454,91,o),
(454,68,cs),
(454,16,o),
(450,-4,o),
(450,-4,c),
(450,-4,o),
(396,0,o),
(314,0,cs),
(231,0,o),
(150,0,o),
(61,0,c),
(61,0,o),
(68,196,o),
(68,371,cs),
(68,464,ls),
(68,664,o),
(58,751,o),
(58,751,c),
(90,751,o),
(120,751,o),
(148,751,cs),
(278,751,o),
(376,753,o),
(443,758,c),
(445,741,o),
(446,725,o),
(446,709,cs),
(446,694,o),
(445,679,o),
(443,665,c),
(392,672,o),
(299,675,o),
(163,675,c),
(161,562,o),
(160,476,o),
(161,423,c),
(161,423,o),
(197,420,o),
(267,420,cs),
(345,420,o),
(408,426,o),
(408,426,c)
);
},
{
closed = 0;
nodes = (
(68,464,ls)
);
}
);
};
layerId = master01;
shapes = (
{
closed = 1;
nodes = (
(180,0,l),
(180,0,o),
(173,137,o),
(173,335,cs),
(173,415,ls),
(173,616,o),
(183,750,o),
(183,750,c),
(68,750,l),
(68,750,o),
(78,616,o),
(78,415,cs),
(78,335,ls),
(78,137,o),
(71,0,o),
(71,0,c)
);
},
{
closed = 1;
nodes = (
(488,20,o),
(488,79,o),
(482,98,c),
(482,98,o),
(443,78,o),
(266,78,cs),
(163,78,l),
(148,0,l),
(305,0,ls),
(406,0,o),
(480,-4,o),
(480,-4,c)
);
},
{
closed = 1;
nodes = (
(433,362,o),
(434,404,o),
(428,426,c),
(428,426,o),
(358,420,o),
(240,420,cs),
(152,420,l),
(154,343,l),
(245,343,ls),
(381,343,o),
(428,338,o),
(428,338,c)
);
},
{
closed = 1;
nodes = (
(476,671,o),
(476,730,o),
(468,754,c),
(468,754,o),
(384,750,o),
(293,750,cs),
(136,750,l),
(151,672,l),
(254,672,ls),
(431,672,o),
(470,652,o),
(470,652,c)
);
}
);
width = 546;
}
);
unicode = 69;
},
{
glyphname = F;
layers = (
{
anchors = (
{
name = bottom;
pos = (249,0);
},
{
name = top;
pos = (249,750);
}
);
background = {
shapes = (
{
closed = 1;
nodes = (
(61,0,o),
(68,176,o),
(68,371,cs),
(68,464,ls),
(68,664,o),
(58,751,o),
(58,751,c),
(90,751,o),
(120,751,o),
(148,751,cs),
(278,751,o),
(376,753,o),
(443,758,c),
(445,741,o),
(446,725,o),
(446,709,cs),
(446,694,o),
(445,679,o),
(443,665,c),
(392,672,o),
(299,675,o),
(163,675,c),
(161,562,o),
(160,476,o),
(161,423,c),
(161,423,o),
(197,420,o),
(267,420,cs),
(345,420,o),
(388,426,o),
(388,426,c),
(389,414,o),
(390,401,o),
(390,386,cs),
(390,371,o),
(389,355,o),
(388,338,c),
(368,340,o),
(161,344,o),
(161,344,c),
(161,167,o),
(179,-1,o),
(179,-1,c),
(61,0,l)
);
}
);
};
layerId = master01;
shapes = (
{
closed = 1;
nodes = (
(189,0,l),
(189,0,o),
(173,137,o),
(173,335,cs),
(173,415,ls),
(173,616,o),
(183,750,o),
(183,750,c),
(68,750,l),
(68,750,o),
(78,616,o),
(78,415,cs),
(78,335,ls),
(78,137,o),
(71,0,o),
(71,0,c)
);
},
{
closed = 1;
nodes = (
(402,362,o),
(403,404,o),
(397,426,c),
(397,426,o),
(327,420,o),
(219,420,cs),
(138,420,l),
(138,343,l),
(224,343,ls),
(350,343,o),
(397,338,o),
(397,338,c)
);
},
{
closed = 1;
nodes = (
(466,671,o),
(466,730,o),
(458,754,c),
(458,754,o),
(384,750,o),
(303,750,cs),
(136,750,l),
(151,672,l),
(264,672,ls),
(421,672,o),
(460,652,o),
(460,652,c)
);
}
);
width = 504;
}
);
unicode = 70;
},
{
glyphname = G;
layers = (
{
anchors = (
{
name = bottom;
pos = (345,0);
},
{
name = top;
pos = (345,750);
}
);
layerId = master01;
shapes = (
{
closed = 1;
nodes = (
(553,-16,o),
(647,145,o),
(647,316,cs),
(647,374,o),
(637,396,o),
(637,396,c),
(526,396,ls),
(413,396,o),
(353,401,o),
(353,401,c),
(348,377,o),
(347,335,o),
(353,313,c),
(353,313,o),
(410,319,o),
(531,319,cs),
(568,319,l),
(555,336,l),
(555,155,o),
(483,64,o),
(361,64,cs),
(230,64,o),
(155,176,o),
(155,375,cs),
(155,585,o),
(231,686,o),
(378,686,cs),
(473,686,o),
(515,649,o),
(551,613,c),
(551,613,o),
(569,625,o),
(583,642,cs),
(604,668,o),
(605,687,o),
(605,687,c),
(565,733,o),
(491,766,o),
(384,766,cs),
(254,766,o),
(50,704,o),
(50,370,cs),
(50,59,o),
(238,-16,o),
(357,-16,cs)
);
}
);
width = 697;
}
);
unicode = 71;
},
{
glyphname = H;
layers = (
{
anchors = (
{
name = bottom;
pos = (349,0);
},
{
name = center;
pos = (349,375);
},
{
name = top;
pos = (349,750);
},
{
name = topleft;
pos = (30,750);
}
);
layerId = master01;
shapes = (
{
closed = 1;
nodes = (
(627,0,l),
(627,0,o),
(620,137,o),
(620,335,cs),
(620,415,ls),
(620,616,o),
(630,750,o),
(630,750,c),
(515,750,l),
(515,750,o),
(525,616,o),
(525,415,cs),
(525,335,ls),
(525,137,o),
(518,0,o),
(518,0,c)
);
},
{
closed = 1;
nodes = (
(180,0,l),
(180,0,o),
(173,137,o),
(173,335,cs),
(173,415,ls),
(173,616,o),
(183,750,o),
(183,750,c),
(68,750,l),
(68,750,o),
(78,616,o),
(78,415,cs),
(78,335,ls),
(78,137,o),
(71,0,o),
(71,0,c)
);
},
{
closed = 1;
nodes = (
(349,336,l),
(528,334,l),
(528,422,l),
(349,420,l),
(170,422,l),
(170,334,l)
);
}
);
width = 698;
}
);
unicode = 72;
},
{
glyphname = I;
layers = (
{
anchors = (
{
name = bottom;
pos = (126,0);
},
{
name = ogonek;
pos = (218,10);
},
{
name = top;
pos = (126,750);
},
{
name = topleft;
pos = (30,750);
}
);
layerId = master01;
shapes = (
{
closed = 1;
nodes = (
(180,0,l),
(180,0,o),
(173,137,o),
(173,335,cs),
(173,415,ls),
(173,616,o),
(183,750,o),
(183,750,c),
(68,750,l),
(68,750,o),
(78,616,o),
(78,415,cs),
(78,335,ls),
(78,137,o),
(71,0,o),
(71,0,c)
);
}
);
width = 251;
}
);
unicode = 73;
},
{
glyphname = J;
layers = (
{
anchors = (
{
name = bottom;
pos = (151,0);
},
{
name = top;
pos = (151,750);
}
);
layerId = master01;
shapes = (
{
closed = 1;
nodes = (
(173,-169,o),
(210,-88,o),
(210,36,cs),
(210,282,l),
(216,750,l),
(109,750,l),
(116,278,l),
(116,72,ls),
(116,-53,o),
(81,-108,o),
(40,-156,c),
(57,-174,o),
(96,-203,o),
(125,-209,c)
);
}
);
width = 301;
}
);
unicode = 74;
},
{
glyphname = K;
lastChange = "2021-09-29 08:09:49 +0000";
layers = (
{
anchors = (
{
name = bottom;
pos = (322,0);
},
{
name = top;
pos = (322,750);
}
);
layerId = master01;
shapes = (
{
closed = 1;
nodes = (
(581,0,l),
(581,0,o),
(395,261,o),
(308,389,c),
(578,750,l),
(578,750,o),
(564,755,o),
(528,755,cs),
(498,755,o),
(465,751,o),
(465,751,c),
(428,697,o),
(252,456,o),
(234,436,c),
(141,436,l),
(141,345,l),
(230,345,l),
(301,241,o),
(464,0,o),
(464,0,c)
);
},
{
closed = 1;
nodes = (
(180,0,l),
(180,0,o),
(163,141,o),
(163,296,cs),
(163,388,o),
(164,440,o),
(164,532,cs),
(169,752,l),
(169,752,o),
(149,755,o),
(119,755,cs),
(89,755,o),
(69,752,o),
(69,752,c),
(72,689,o),
(73,646,o),
(73,526,cs),
(73,286,ls),
(73,160,o),
(68,0,o),
(68,0,c)
);
}
);
width = 644;
}
);
unicode = 75;
},
{
glyphname = L;
layers = (
{
anchors = (
{
name = bottom;
pos = (249,0);
},
{
name = center;
pos = (249,375);
},
{
name = top;
pos = (249,750);
},
{
name = topright;
pos = (470,750);
}
);
layerId = master01;
shapes = (
{
closed = 1;
nodes = (
(180,0,l),
(180,0,o),
(173,137,o),
(173,335,cs),
(173,415,ls),
(173,616,o),
(183,750,o),
(183,750,c),
(68,750,l),
(68,750,o),
(78,616,o),
(78,415,cs),
(78,335,ls),
(78,137,o),
(71,0,o),
(71,0,c)
);
},
{
closed = 1;
nodes = (
(488,20,o),
(488,72,o),
(482,91,c),
(482,91,o),
(384,78,o),
(266,78,cs),
(149,78,l),
(148,0,l),
(305,0,ls),
(386,0,o),
(480,-4,o),
(480,-4,c)
);
}
);
width = 516;
}
);
unicode = 76;
},
{
glyphname = M;
layers = (
{
anchors = (
{
name = bottom;
pos = (418,0);
},
{
name = top;
pos = (418,750);
}
);
layerId = master01;
shapes = (
{
closed = 1;
nodes = (
(456,0,l),
(610,375,l),
(709,714,l),
(757,750,l),
(657,750,l),
(391,50,l),
(388,0,l)
);
},
{
closed = 1;
nodes = (
(168,0,l),
(168,0,o),
(162,137,o),
(162,335,cs),
(162,750,l),
(68,750,l),
(68,750,o),
(77,616,o),
(77,415,cs),
(77,335,ls),
(77,137,o),
(68,0,o),
(68,0,c)
);
},
{
closed = 1;
nodes = (
(444,0,l),
(441,50,l),
(175,750,l),
(75,750,l),
(123,714,l),
(222,375,l),
(376,0,l)
);
},
{
closed = 1;
nodes = (
(767,0,l),
(767,0,o),
(761,137,o),
(761,335,cs),
(761,415,ls),
(761,616,o),
(764,750,o),
(764,750,c),
(676,750,l),
(676,335,ls),
(676,137,o),
(667,0,o),
(667,0,c)
);
}
);
width = 835;
}
);
unicode = 77;
},
{
glyphname = N;
lastChange = "2021-09-29 08:09:49 +0000";
layers = (
{
anchors = (
{
name = bottom;
pos = (333,0);
},
{
name = top;
pos = (333,750);
}
);
background = {
shapes = (
{
closed = 1;
nodes = (
(584,0,l),
(536,113,l),
(512,148,l),
(428,324,l),
(153,750,l),
(86,750,l),
(106,695,l),
(133,648,l),
(214,478,l),
(492,0,l)
);
},
{
closed = 1;
nodes = (
(160,0,l),
(160,0,o),
(153,137,o),
(153,335,cs),
(153,750,l),
(58,750,l),
(58,750,o),
(68,616,o),
(68,415,cs),
(68,335,ls),
(68,137,o),
(61,0,o),
(61,0,c)
);
},
{
closed = 1;
nodes = (
(584,0,l),
(584,0,o),
(577,137,o),
(577,335,cs),
(577,415,ls),
(577,616,o),
(587,750,o),
(587,750,c),
(482,750,l),
(482,750,o),
(492,616,o),
(492,415,cs),
(492,0,l)
);
}
);
};
layerId = master01;
shapes = (
{
closed = 1;
nodes = (
(572,30,l),
(467,242,l),
(163,750,l),
(103,710,l),
(206,500,l),
(502,0,l)
);
},
{
closed = 1;
nodes = (
(170,0,l),
(170,0,o),
(163,137,o),
(163,335,cs),
(163,750,l),
(68,750,l),
(68,750,o),
(78,616,o),
(78,415,cs),
(78,335,ls),
(78,137,o),
(71,0,o),
(71,0,c)
);
},
{
closed = 1;
nodes = (
(594,0,l),
(594,0,o),
(587,137,o),
(587,335,cs),
(587,415,ls),
(587,616,o),
(597,750,o),
(597,750,c),
(492,750,l),
(492,750,o),
(502,616,o),
(502,415,cs),
(506,277,o),
(502,0,o),
(502,0,c)
);
}
);
width = 665;
}
);
unicode = 78;
},
{
glyphname = O;
kernLeft = O;
kernRight = O;
lastChange = "2021-09-29 08:42:59 +0000";
layers = (
{
anchors = (
{
name = bottom;
pos = (373,0);
},
{
name = center;
pos = (373,375);
},
{
name = ogonek;
pos = (663,10);
},
{
name = top;
pos = (373,750);
},
{
name = topleft;
pos = (30,750);
},
{
name = topright;
pos = (715,750);
}
);
layerId = master01;
shapes = (
{
closed = 1;
nodes = (
(533,-16,o),
(695,77,o),
(695,375,cs),
(695,673,o),
(533,766,o),
(375,766,cs),
(217,766,o),
(50,673,o),
(50,375,cs),
(50,77,o),
(217,-16,o),
(375,-16,cs)
);
},
{
closed = 1;
nodes = (
(272,64,o),
(155,136,o),
(155,375,cs),
(155,614,o),
(272,686,o),
(375,686,cs),
(478,686,o),
(590,614,o),
(590,375,cs),
(590,136,o),
(478,64,o),
(375,64,cs)
);
}
);
width = 745;
}
);
unicode = 79;
},
{
glyphname = P;
layers = (
{
anchors = (
{
name = bottom;
pos = (295,0);
},
{
name = top;
pos = (295,750);
}
);
background = {
shapes = (
{
closed = 1;
nodes = (
(162,499,o),
(162,604,o),
(163,688,c),
(172,689,o),
(196,690,o),
(234,690,cs),
(297,690,o),
(343,674,o),
(372,643,cs),
(401,612,o),
(416,572,o),
(416,524,cs),
(416,471,o),
(399,430,o),
(365,400,cs),
(331,369,o),
(290,354,o),
(241,354,cs),
(208,354,o),
(182,361,o),
(163,374,c)
);
},
{
closed = 1;
nodes = (
(66,724,o),
(69,684,o),
(70,626,cs),
(71,568,o),
(72,491,o),
(71,395,cs),
(70,298,o),
(70,237,o),
(70,210,cs),
(70,181,o),
(69,111,o),
(66,0,c),
(167,0,l),
(164,47,o),
(162,143,o),
(162,286,c),
(177,285,o),
(203,285,o),
(241,285,cs),
(325,285,o),
(392,305,o),
(442,345,cs),
(491,385,o),
(516,448,o),
(516,533,cs),
(516,611,o),
(490,669,o),
(439,707,cs),
(387,745,o),
(315,764,o),
(224,764,cs),
(185,764,o),
(131,758,o),
(62,746,c)
);
}
);
};
layerId = master01;
shapes = (
{
closed = 1;
nodes = (
(426,285,o),
(530,382,o),
(530,524,cs),
(530,684,o),
(406,765,o),
(227,765,cs),
(111,765,o),
(68,750,o),
(68,750,c),
(114,686,l),
(222,686,ls),
(351,686,o),
(425,624,o),
(425,518,cs),
(425,416,o),
(342,361,o),
(244,361,cs),
(196,361,o),
(141,381,o),
(141,381,c),
(141,305,l),
(141,305,o),
(158,285,o),
(249,285,cs)
);
},
{
closed = 1;
nodes = (
(180,0,l),
(180,0,o),
(173,137,o),
(173,335,cs),
(173,415,ls),
(173,616,o),
(183,750,o),
(183,750,c),
(68,750,l),
(68,750,o),
(78,616,o),
(78,415,cs),
(78,335,ls),
(78,137,o),
(71,0,o),
(71,0,c)
);
}
);
width = 570;
}
);
unicode = 80;
},
{
glyphname = Q;
lastChange = "2021-09-29 08:09:46 +0000";
layers = (
{
anchors = (
{
name = bottom;
pos = (374,0);
},
{
name = top;
pos = (374,750);
}
);
layerId = master01;
shapes = (
{
closed = 1;
nodes = (
(533,-16,o),
(695,77,o),
(695,375,cs),
(695,673,o),
(533,766,o),
(375,766,cs),
(217,766,o),
(50,673,o),
(50,375,cs),
(50,77,o),
(217,-16,o),
(375,-16,cs)
);
},
{
closed = 1;
nodes = (
(702,-215,o),
(739,-168,o),
(739,-168,c),
(748,-140,o),
(738,-93,o),
(715,-83,c),
(715,-83,o),
(655,-133,o),
(558,-133,cs),
(410,-133,o),
(413,0,o),
(413,0,c),
(366,46,l),
(366,46,o),
(341,21,o),
(341,-30,cs),
(341,-125,o),
(424,-215,o),
(562,-215,cs)
);
},
{
closed = 1;
nodes = (
(272,64,o),
(155,136,o),
(155,375,cs),
(155,614,o),
(272,686,o),
(375,686,cs),
(478,686,o),
(590,614,o),
(590,375,cs),
(590,136,o),
(478,64,o),
(375,64,cs)
);
}
);
width = 782;
}
);
unicode = 81;
},
{
glyphname = R;
lastChange = "2021-09-29 08:09:49 +0000";
layers = (
{
anchors = (
{
name = bottom;
pos = (303,0);
},
{
name = top;
pos = (303,750);
}
);
background = {
shapes = (
{
closed = 1;
nodes = (
(211,300,ls),
(443,300,o),
(530,411,o),
(530,543,cs),
(530,695,o),
(414,765,o),
(229,765,cs),
(144,765,o),
(68,750,o),
(68,750,c),
(114,685,l),
(236,685,ls),
(367,685,o),
(430,619,o),
(430,531,cs),
(430,451,o),
(374,369,o),
(251,369,cs),
(224,369,l),
(199,300,l)
);
},
{
closed = 1;
nodes = (
(180,0,l),
(180,0,o),
(173,137,o),
(173,335,cs),
(173,415,l),
(173,750,l),
(68,750,l),
(68,750,o),
(78,615,o),
(78,415,cs),
(78,335,ls),
(78,137,o),
(71,0,o),
(71,0,c)
);
},
{
closed = 1;
nodes = (
(540,-18,o),
(570,20,o),
(570,47,c),
(437,75,o),
(345,235,cs),
(278,351,l),
(199,300,l),
(288,166,l),
(353,69,o),
(433,10,o),
(521,-30,c)
);
}
);
};
layerId = master01;
shapes = (
{
closed = 1;
nodes = (
(215,300,ls),
(447,300,o),
(530,411,o),
(530,543,cs),
(530,695,o),
(414,765,o),
(229,765,cs),
(144,765,o),
(68,750,o),
(68,750,c),
(114,685,l),
(236,685,ls),
(367,685,o),
(430,619,o),
(430,531,cs),
(430,451,o),
(374,369,o),
(251,369,cs),
(228,369,l),
(203,300,l)
);
},
{
closed = 1;
nodes = (
(180,0,l),
(180,0,o),
(173,137,o),
(173,335,cs),
(173,750,l),
(68,750,l),
(68,750,o),
(78,615,o),
(78,415,cs),
(78,335,ls),
(78,137,o),
(71,0,o),
(71,0,c)
);
},
{
closed = 1;
nodes = (
(537,-5,o),
(554,21,o),
(561,59,c),
(424,106,o),
(329,230,o),
(276,345,c),
(203,300,l),
(262,174,o),
(368,30,o),
(508,-19,c)
);
}
);
width = 596;
}
);
metricLeft = H;
unicode = 82;
},
{
glyphname = S;
lastChange = "2021-09-29 08:35:56 +0000";
layers = (
{
anchors = (
{
name = bottom;
pos = (317,0);
},
{
name = top;
pos = (317,750);
}
);
layerId = master01;
shapes = (
{
closed = 1;
nodes = (
(477,-15,o),
(579,64,o),
(579,186,cs),
(579,316,o),
(463,383,o),
(364,433,cs),
(262,485,o),
(195,507,o),
(190,578,cs),
(186,635,o),
(229,684,o),
(331,684,cs),
(457,684,o),
(509,609,o),
(509,609,c),
(509,609,o),
(525,621,o),
(541,644,cs),
(558,669,o),
(556,688,o),
(556,688,c),
(530,715,o),
(460,766,o),
(332,766,cs),
(185,766,o),
(88,699,o),
(88,575,cs),
(88,445,o),
(196,409,o),
(313,348,cs),
(402,302,o),
(474,256,o),
(474,182,cs),
(474,111,o),
(409,71,o),
(323,71,cs),
(189,71,o),
(109,167,o),
(109,167,c),
(109,167,o),
(89,156,o),
(75,138,cs),
(53,111,o),
(50,87,o),
(50,87,c),
(69,70,o),
(164,-15,o),
(323,-15,cs)
);
}
);
width = 634;
}
);
unicode = 83;
},
{
glyphname = T;
lastChange = "2021-09-29 07:53:15 +0000";
layers = (
{
anchors = (
{
name = bottom;
pos = (292,0);
},
{
name = center;
pos = (292,375);
},
{
name = top;
pos = (292,750);
}
);
layerId = master01;
shapes = (
{
closed = 1;
nodes = (
(347,-1,l),
(347,-1,o),
(340,137,o),
(340,335,cs),
(340,415,ls),
(340,615,o),
(350,750,o),
(350,750,c),
(235,750,l),
(235,750,o),
(245,615,o),
(245,415,cs),
(245,335,ls),
(245,137,o),
(238,-1,o),
(238,-1,c)
);
},
{
closed = 1;
nodes = (
(83,671,o),
(156,675,o),
(292,675,cs),
(428,675,o),
(500,671,o),
(551,664,c),
(553,678,o),
(553,693,o),
(553,708,cs),
(553,724,o),
(553,740,o),
(551,757,c),
(484,752,o),
(422,750,o),
(292,750,cs),
(162,750,o),
(99,752,o),
(32,757,c),
(30,740,o),
(30,724,o),
(30,708,cs),
(30,693,o),
(30,678,o),
(32,664,c)
);
}
);
width = 583;
}
);
unicode = 84;
},
{
glyphname = U;
lastChange = "2021-09-29 08:09:49 +0000";
layers = (
{
anchors = (
{
name = bottom;
pos = (332,0);
},
{
name = ogonek;
pos = (588,10);
},
{
name = top;
pos = (332,750);
},
{
name = topright;
pos = (632,750);
}
);
background = {
shapes = (
{
pos = (-39,0);
ref = O;
}
);
};
layerId = master01;
shapes = (
{
closed = 1;
nodes = (
(488,-16,o),
(595,77,o),
(595,338,cs),
(595,455,ls),
(595,616,o),
(601,750,o),
(601,750,c),
(489,750,l),
(489,750,o),
(500,616,o),
(500,455,cs),
(500,338,ls),
(500,146,o),
(442,67,o),
(334,67,cs),
(223,67,o),
(163,146,o),
(163,338,cs),
(163,455,ls),
(163,616,o),
(173,750,o),
(173,750,c),
(58,750,ls),
(61,750,o),
(68,616,o),
(68,455,cs),
(68,338,ls),
(68,77,o),
(181,-16,o),
(334,-16,cs)
);
}
);
width = 659;
}
);
unicode = 85;
},
{
glyphname = V;
kernLeft = V;
kernRight = V;
lastChange = "2021-09-29 08:42:16 +0000";
layers = (
{
anchors = (
{
name = bottom;
pos = (311,0);
},
{
name = top;
pos = (311,750);
}
);
layerId = master01;
shapes = (
{
closed = 1;
nodes = (
(377,0,l),
(612,750,l),
(612,750,o),
(599,760,o),
(563,760,cs),
(525,760,o),
(504,750,o),
(504,750,c),
(391,375,l),
(311,67,l),
(280,121,l),
(274,0,l)
);
},
{
closed = 1;
nodes = (
(358,0,l),
(352,121,l),
(321,67,l),
(241,375,l),
(128,750,l),
(128,750,o),
(107,760,o),
(69,760,cs),
(33,760,o),
(20,750,o),
(20,750,c),
(255,0,l)
);
}
);
width = 632;
}
);
unicode = 86;
},
{
glyphname = W;
kernLeft = V;
kernRight = V;
lastChange = "2021-09-29 08:42:29 +0000";
layers = (
{
anchors = (
{
name = bottom;
pos = (523,0);
},
{
name = top;
pos = (523,750);
}
);
layerId = master01;
shapes = (
{
closed = 1;
nodes = (
(357,0,l),
(409,189,l),
(508,592,l),
(523,678,l),
(537,594,l),
(635,189,l),
(686,0,l),
(815,0,l),
(1033,750,l),
(1033,750,o),
(1005,757,o),
(966,757,cs),
(930,757,o),
(911,750,o),
(911,750,c),
(773,193,l),
(754,75,l),
(726,199,l),
(587,750,l),
(453,750,l),
(313,187,l),
(290,75,l),
(272,189,l),
(142,750,l),
(142,750,o),
(111,756,o),
(85,756,cs),
(59,756,o),
(20,750,o),
(20,750,c),
(228,0,l)
);
}
);
width = 1053;
}
);
unicode = 87;
},
{
glyphname = X;
lastChange = "2021-09-29 08:09:49 +0000";
layers = (
{
anchors = (
{
name = bottom;
pos = (314,0);
},
{
name = top;
pos = (314,750);
}
);
layerId = master01;
shapes = (
{
closed = 1;
nodes = (
(145,1,l),
(356,393,l),
(254,393,l),
(254,393,o),
(211,318,o),
(128,177,cs),
(43,32,o),
(20,1,o),
(20,1,c)
);
},
{
closed = 1;
nodes = (
(608,1,ls),
(611,1,o),
(585,35,o),
(501,181,cs),
(416,329,o),
(377,393,o),
(377,393,c),
(277,393,l),
(486,1,l)
);
},
{
closed = 1;
nodes = (
(354,393,l),
(163,741,l),
(163,741,o),
(164,750,o),
(107,750,cs),
(63,750,o),
(37,741,o),
(37,741,c),
(37,741,o),
(61,710,o),
(149,566,cs),
(254,393,l)
);
},
{
closed = 1;
nodes = (
(377,393,l),
(377,393,o),
(401,421,o),
(483,566,cs),
(565,711,o),
(597,750,o),
(597,741,c),
(597,741,o),
(580,750,o),
(539,750,cs),
(467,750,o),
(469,741,o),
(469,741,c),
(278,393,l)
);
}
);
width = 628;
}
);
metricLeft = V;
metricRight = V;
unicode = 88;
},
{
glyphname = Y;
kernLeft = V;
kernRight = V;
lastChange = "2021-09-29 08:42:42 +0000";
layers = (
{
anchors = (
{
name = bottom;
pos = (303,0);
},
{
name = top;
pos = (303,750);
},
{
name = topleft;
pos = (11,750);
}
);
layerId = master01;
shapes = (
{
closed = 1;
nodes = (
(356,0,ls),
(357,0,o),
(349,264,o),
(349,264,c),
(585,751,l),
(585,751,o),
(561,756,o),
(529,756,cs),
(488,756,o),
(465,751,o),
(465,751,c),
(305,365,l),
(141,751,l),
(141,751,o),
(124,756,o),
(82,756,cs),
(46,756,o),
(20,751,o),
(20,751,c),
(254,265,l),
(247,0,l)
);
}
);
width = 605;
}
);
unicode = 89;
},
{
glyphname = Z;
lastChange = "2021-09-29 08:09:49 +0000";
layers = (
{
anchors = (
{
name = bottom;
pos = (284,0);
},
{
name = center;
pos = (284,375);
},
{
name = top;
pos = (284,750);
}
);
layerId = master01;
shapes = (
{
closed = 1;
nodes = (
(555,15,o),
(556,72,o),
(548,98,c),
(548,98,o),
(485,84,o),
(303,84,cs),
(170,84,l),
(249,208,l),
(543,734,l),
(543,750,l),
(212,750,ls),
(152,750,o),
(52,754,o),
(52,754,c),
(44,730,o),
(43,678,o),
(54,652,c),
(54,652,o),
(104,666,o),
(277,666,cs),
(397,666,l),
(313,522,l),
(30,18,l),
(30,0,l),
(391,0,ls),
(435,0,o),
(546,-4,o),
(546,-4,c)
);
}
);
width = 568;
}
);
unicode = 90;
},
{
glyphname = Q.ss01;
lastChange = "2021-09-29 08:09:55 +0000";
layers = (
{
anchors = (
{
name = bottom;
pos = (353,0);
},
{
name = top;
pos = (353,750);
}
);
layerId = master01;
shapes = (
{
closed = 1;
nodes = (
(532,-215,o),
(569,-168,o),
(569,-168,c),
(578,-140,o),
(569,-93,o),
(545,-83,c),
(545,-83,o),
(485,-133,o),
(388,-133,cs),
(240,-133,o),
(243,0,o),
(243,0,c),
(206,0,l),
(206,0,o),
(236,-52,o),
(319,-52,cs),
(483,-52,o),
(655,76,o),
(655,374,cs),
(655,672,o),
(513,766,o),
(355,766,cs),
(197,766,o),
(50,673,o),
(50,405,cs),
(50,196,o),
(146,117,o),
(203,88,c),
(234,90,o),
(266,130,o),
(268,157,c),
(212,192,o),
(165,260,o),
(165,405,cs),
(165,624,o),
(262,683,o),
(355,683,cs),
(448,683,o),
(555,623,o),
(555,374,cs),
(555,125,o),
(418,27,o),
(300,27,cs),
(244,27,o),
(196,46,o),
(196,46,c),
(196,46,o),
(171,21,o),
(171,-30,cs),
(171,-125,o),
(254,-215,o),
(392,-215,cs)
);
}
);
width = 705;
}
);
},
{
glyphname = a;
kernLeft = a;
kernRight = n;
lastChange = "2021-09-29 08:44:31 +0000";
layers = (
{
anchors = (
{
name = Top;
pos = (253,586);
},
{
name = bottom;
pos = (278,0);
},
{
name = ogonek;
pos = (488,10);
},
{
name = top;
pos = (243,550);
}
);
background = {
shapes = (
{
closed = 1;
nodes = (
(436,-14,o),
(476,0,o),
(498,23,c),
(498,23,o),
(466,78,o),
(466,163,cs),
(466,361,ls),
(466,434,o),
(448,486,o),
(412,518,cs),
(376,550,o),
(319,566,o),
(242,566,cs),
(149,566,o),
(83,548,o),
(83,548,c),
(83,548,o),
(77,538,o),
(77,514,cs),
(77,478,o),
(90,452,o),
(90,452,c),
(90,452,o),
(145,480,o),
(242,480,cs),
(340,480,o),
(371,432,o),
(371,345,cs),
(371,273,l),
(372,273,l),
(372,120,ls),
(372,79,o),
(382,10,o),
(402,-18,c)
);
},
{
closed = 1;
nodes = (
(329,-16,o),
(401,81,o),
(401,165,c),
(372,206,l),
(372,121,o),
(307,69,o),
(235,69,cs),
(175,69,o),
(151,104,o),
(151,159,cs),
(151,222,o),
(202,265,o),
(317,265,cs),
(350,265,o),
(379,262,o),
(401,260,c),
(401,327,l),
(401,327,o),
(367,333,o),
(296,333,cs),
(138,333,o),
(55,274,o),
(55,154,cs),
(55,42,o),
(128,-16,o),
(202,-16,cs)
);
}
);
};
layerId = master01;
shapes = (
{
closed = 1;
nodes = (
(441,-13,o),
(478,3,o),
(498,23,c),
(479,55,o),
(466,113,o),
(466,163,cs),
(466,361,ls),
(466,500,o),
(401,566,o),
(264,566,cs),
(183,566,o),
(116,551,o),
(70,529,c),
(65,512,o),
(80,452,o),
(92,441,c),
(130,467,o),
(186,489,o),
(243,489,cs),
(330,489,o),
(371,433,o),
(371,345,cs),
(371,273,l),
(372,273,l),
(372,120,ls),
(372,69,o),
(386,5,o),
(402,-18,c)
);
},
{
closed = 1;
nodes = (
(312,-16,o),
(401,68,o),
(401,165,c),
(372,206,l),
(372,128,o),
(314,69,o),
(235,69,cs),
(181,69,o),
(151,100,o),
(151,154,cs),
(151,228,o),
(207,265,o),
(318,265,cs),
(350,265,o),
(379,262,o),
(401,260,c),
(401,327,l),
(381,330,o),
(341,333,o),
(306,333,cs),
(136,333,o),
(55,275,o),
(55,154,cs),
(55,51,o),
(116,-16,o),
(210,-16,cs)
);
}
);
width = 543;
}
);
unicode = 97;
},
{
glyphname = b;
layers = (
{
anchors = (
{
name = bottom;
pos = (298,0);
},
{
name = center;
pos = (298,275);
},
{
name = top;
pos = (298,550);
}
);
layerId = master01;
shapes = (
{
closed = 1;
nodes = (
(445,-16,o),
(540,104,o),
(540,275,cs),
(540,484,o),
(432,566,o),
(311,566,cs),
(162,566,o),
(109,416,o),
(109,416,c),
(165,335,l),
(165,428,o),
(224,485,o),
(291,485,cs),
(377,485,o),
(439,430,o),
(439,275,cs),
(439,151,o),
(376,67,o),
(289,67,cs),
(204,67,o),
(165,153,o),
(165,252,c),
(136,87,l),
(136,87,o),
(193,-16,o),
(311,-16,cs)
);
},
{
closed = 1;
nodes = (
(124,0,l),
(176,82,l),
(165,82,l),
(165,517,ls),
(165,741,o),
(178,797,o),
(178,797,c),
(178,797,o),
(150,800,o),
(120,800,cs),
(90,800,o),
(70,797,o),
(70,797,c),
(70,797,o),
(75,706,o),
(75,436,cs),
(75,288,ls),
(75,30,o),
(73,0,o),
(73,0,c)
);
}
);
width = 585;
}
);
unicode = 98;
},
{
glyphname = c;
lastChange = "2021-09-29 08:09:46 +0000";
layers = (
{
layerId = master01;
shapes = (
{
closed = 1;
nodes = (
(409,-15,o),
(476,32,o),
(476,32,c),
(476,86,o),
(444,113,o),
(444,113,c),
(444,113,o),
(365,63,o),
(293,63,cs),
(221,63,o),
(144,107,o),
(144,275,cs),
(144,443,o),
(233,483,o),
(303,483,cs),
(382,483,o),
(410,448,o),
(410,448,c),
(426,457,o),
(453,503,o),
(453,530,c),
(425,548,o),
(380,566,o),
(303,566,cs),
(205,566,o),
(45,499,o),
(45,275,cs),
(45,61,o),
(150,-15,o),
(297,-15,cs)
);
}
);
width = 506;
}
);
unicode = 99;
},
{
glyphname = d;
layers = (
{
anchors = (
{
name = bottom;
pos = (286,0);
},
{
name = center;
pos = (286,275);
},
{
name = top;
pos = (286,800);
},
{
name = topright;
pos = (547,800);
}
);
layerId = master01;
shapes = (
{
closed = 1;
nodes = (
(407,-16,o),
(477,100,o),
(477,223,c),
(418,215,l),
(418,128,o),
(354,64,o),
(286,64,cs),
(217,64,o),
(143,136,o),
(143,275,cs),
(143,391,o),
(189,485,o),
(287,485,cs),
(378,485,o),
(418,406,o),
(418,341,c),
(479,349,l),
(479,425,o),
(427,566,o),
(276,566,cs),
(145,566,o),
(45,460,o),
(45,275,cs),
(45,77,o),
(160,-16,o),
(279,-16,cs)
);
},
{
closed = 1;
nodes = (
(508,0,l),
(509,577,ls),
(509,701,o),
(508,794,o),
(490,812,c),
(456,810,o),
(416,796,o),
(395,772,c),
(395,772,o),
(418,710,o),
(418,577,cs),
(418,65,l),
(452,0,l)
);
}
);
width = 579;
}
);
unicode = 100;
},
{
glyphname = e;
kernLeft = o;
kernRight = o;
lastChange = "2021-09-29 08:44:23 +0000";
layers = (
{
anchors = (
{
name = bottom;
pos = (270,-14);
},
{
name = ogonek;
pos = (481,10);
},
{
name = top;
pos = (293,566);
}
);
background = {
shapes = (
{
closed = 0;
nodes = (
(307,61,ls),
(225,61,o),
(143,126,o),
(143,309,cs)
);
},
{
closed = 0;
nodes = (
(42,309,ls),
(42,27,o),
(203,-16,o),
(297,-16,cs)
);
}
);
};
layerId = master01;
shapes = (
{
closed = 1;
nodes = (
(419,-15,o),
(483,32,o),
(483,32,c),
(483,86,o),
(451,113,o),
(451,113,c),
(451,113,o),
(375,63,o),
(303,63,cs),
(211,63,o),
(144,144,o),
(144,275,cs),
(144,443,o),
(205,488,o),
(283,488,cs),
(377,488,o),
(401,422,o),
(401,336,c),
(125,336,l),
(125,258,l),
(466,258,l),
(466,258,o),
(494,291,o),
(494,356,cs),
(494,478,o),
(418,566,o),
(293,566,cs),
(156,566,o),
(47,468,o),
(45,275,cs),
(43,86,o),
(144,-15,o),
(297,-15,cs)
);
}
);
width = 539;
}
);
unicode = 101;
},
{
glyphname = f;
lastChange = "2021-09-29 08:54:08 +0000";
layers = (
{
anchors = (
{
name = bottom;
pos = (183,0);
},
{
name = top;
pos = (183,800);
}
);
background = {
shapes = (
{
closed = 1;
nodes = (
(174,464,l),
(332,462,l),
(332,550,l),
(173,548,l),
(24,550,l),
(24,462,l)
);
},
{
closed = 1;
nodes = (
(387,676,o),
(390,689,o),
(390,706,cs),
(390,729,o),
(382,744,o),
(366,753,cs),
(349,762,o),
(316,766,o),
(265,766,cs),
(206,766,o),
(165,748,o),
(142,712,cs),
(119,676,o),
(107,627,o),
(107,565,cs),
(107,273,l),
(102,0,l),
(206,0,l),
(200,63,o),
(197,154,o),
(197,273,cs),
(197,526,ls),
(197,589,o),
(202,631,o),
(213,654,cs),
(224,677,o),
(248,688,o),
(285,688,cs),
(300,688,o),
(316,686,o),
(332,683,cs),
(348,680,o),
(360,676,o),
(368,673,cs),
(381,668,l)
);
}
);
};
layerId = master01;
shapes = (
{
closed = 1;
nodes = (
(189,-2,o),
(205,0,o),
(205,0,c),
(205,16,o),
(196,104,o),
(196,290,cs),
(196,591,ls),
(196,691,o),
(222,735,o),
(278,735,cs),
(323,735,o),
(350,704,o),
(350,704,c),
(366,713,o),
(393,755,o),
(393,782,c),
(367,804,o),
(332,816,o),
(285,816,cs),
(173,816,o),
(106,746,o),
(106,601,cs),
(106,286,ls),
(106,160,o),
(101,0,o),
(101,0,c),
(101,0,o),
(123,-2,o),
(154,-2,cs)
);
},
{
closed = 1;
nodes = (
(336,493,o),
(337,522,o),
(332,552,c),
(332,552,o),
(206,550,o),
(149,550,cs),
(91,550,o),
(24,552,o),
(24,552,c),
(18,523,o),
(18,493,o),
(24,464,c),
(24,464,o),
(110,466,o),
(155,466,cs),
(210,466,o),
(331,463,o),
(331,463,c)
);
}
);
width = 378;
}
);
unicode = 102;
changeCount = 1;
},
{
glyphname = g;
lastChange = "2021-09-29 08:11:33 +0000";
layers = (
{
anchors = (
{
name = bottom;
pos = (294,-200);
},
{
name = top;
pos = (294,550);
}
);
layerId = master01;
shapes = (
{
closed = 1;
nodes = (
(395,-216,o),
(521,-143,o),
(521,65,cs),
(521,550,l),
(465,550,l),
(431,488,l),
(431,48,ls),
(431,-58,o),
(382,-141,o),
(268,-141,cs),
(158,-141,o),
(102,-87,o),
(102,-87,c),
(87,-103,o),
(67,-136,o),
(66,-174,c),
(66,-174,o),
(133,-216,o),
(267,-216,cs)
);
},
{
closed = 1;
nodes = (
(421,-16,o),
(490,101,o),
(490,223,c),
(431,215,l),
(431,128,o),
(367,64,o),
(299,64,cs),
(230,64,o),
(143,136,o),
(143,275,cs),
(143,391,o),
(202,485,o),
(300,485,cs),
(391,485,o),
(431,406,o),
(431,341,c),
(492,349,l),
(492,425,o),
(440,566,o),
(289,566,cs),
(158,566,o),
(45,460,o),
(45,275,cs),
(45,77,o),
(173,-16,o),
(290,-16,cs)
);
}
);
width = 583;
}
);
unicode = 103;
},
{
glyphname = h;
layers = (
{
anchors = (
{
name = bottom;
pos = (291,0);
},
{
name = center;
pos = (291,400);
},
{
name = top;
pos = (291,800);
}
);
layerId = master01;
shapes = (
{
closed = 1;
nodes = (
(482,-15,o),
(518,7,o),
(528,28,c),
(528,28,o),
(502,61,o),
(502,152,cs),
(502,352,ls),
(502,498,o),
(455,566,o),
(337,566,cs),
(200,566,o),
(118,451,o),
(118,451,c),
(154,416,l),
(154,406,o),
(220,477,o),
(304,477,cs),
(384,477,o),
(412,423,o),
(412,329,cs),
(412,130,ls),
(412,86,o),
(418,9,o),
(438,-19,c)
);
},
{
closed = 1;
nodes = (
(161,-2,o),
(182,0,o),
(182,0,c),
(182,0,o),
(167,104,o),
(167,290,cs),
(167,412,o),
(179,461,o),
(179,461,c),
(168,461,l),
(168,526,l),
(173,800,l),
(173,800,o),
(153,802,o),
(123,802,cs),
(93,802,o),
(73,800,o),
(73,800,c),
(76,737,o),
(77,645,o),
(77,526,cs),
(77,286,ls),
(77,160,o),
(70,0,o),
(70,0,c),
(70,0,o),
(95,-2,o),
(126,-2,cs)
);
}
);
width = 573;
}
);
unicode = 104;
},
{
glyphname = i;
lastChange = "2021-09-29 08:09:46 +0000";
layers = (
{
anchors = (
{
name = bottom;
pos = (147,0);
}
);
layerId = master01;
shapes = (
{
closed = 1;
nodes = (
(165,650,o),
(194,678,o),
(194,712,cs),
(194,746,o),
(165,774,o),
(131,774,cs),
(97,774,o),
(70,746,o),
(70,712,cs),
(70,678,o),
(97,650,o),
(131,650,cs)
);
},
{
pos = (23,0);
ref = idotless;
}
);
width = 264;
}
);
unicode = 105;
},
{
glyphname = idotless;
layers = (
{
anchors = (
{
name = bottom;
pos = (115,0);
},
{
name = ogonek;
pos = (179,21);
},
{
name = top;
pos = (115,550);
}
);
layerId = master01;
shapes = (
{
closed = 1;
nodes = (
(145,-2,o),
(165,0,o),
(165,0,c),
(162,63,o),
(160,154,o),
(160,273,cs),
(160,279,l),
(165,553,l),
(165,553,o),
(145,555,o),
(115,555,cs),
(85,555,o),
(65,553,o),
(65,553,c),
(68,490,o),
(70,398,o),
(70,279,cs),
(70,273,l),
(65,0,l),
(65,0,o),
(85,-2,o),
(115,-2,cs)
);
}
);
width = 230;
}
);
unicode = 305;
},
{
glyphname = j;
layers = (
{
layerId = master01;
shapes = (
{
closed = 1;
nodes = (
(144,-166,o),
(188,-88,o),
(188,36,cs),
(188,282,l),
(194,550,l),
(87,550,l),
(95,278,l),
(95,72,ls),
(95,-55,o),
(56,-100,o),
(15,-148,c),
(33,-168,o),
(67,-200,o),
(96,-206,c)
);
},
{
closed = 1;
nodes = (
(173,652,o),
(202,680,o),
(202,714,cs),
(202,748,o),
(173,776,o),
(139,776,cs),
(105,776,o),
(78,748,o),
(78,714,cs),
(78,680,o),
(105,652,o),
(139,652,cs)
);
}
);
width = 266;
}
);
unicode = 106;
},
{
glyphname = k;
lastChange = "2021-09-29 08:09:49 +0000";
layers = (
{
anchors = (
{
name = bottom;
pos = (286,0);
},
{
name = top;
pos = (286,800);
}
);
layerId = master01;
shapes = (
{
closed = 1;
nodes = (
(543,0,l),
(543,0,o),
(413,188,o),
(326,316,c),
(532,550,l),
(532,550,o),
(510,557,o),
(474,557,cs),
(444,557,o),
(412,550,o),
(412,550,c),
(370,498,o),
(324,437,o),
(258,363,c),
(165,363,l),
(165,273,l),
(254,273,l),
(325,169,o),
(431,0,o),
(431,0,c)
);
},
{
closed = 1;
nodes = (
(182,0,l),
(182,0,o),
(165,145,o),
(165,300,cs),
(165,392,o),
(164,434,o),
(166,526,cs),
(171,751,l),
(171,751,o),
(151,753,o),
(121,753,cs),
(91,753,o),
(71,751,o),
(71,751,c),
(74,688,o),
(75,645,o),
(75,526,cs),
(75,286,ls),
(75,160,o),
(70,0,o),
(70,0,c)
);
}
);
width = 553;
}
);
unicode = 107;
},
{
glyphname = l;
lastChange = "2021-09-29 08:46:07 +0000";
layers = (
{
anchors = (
{
name = bottom;
pos = (133,0);
},
{
name = center;
pos = (133,400);
},
{
name = top;
pos = (133,800);
},
{
name = topright;
pos = (233,800);
}
);
layerId = master01;
shapes = (
{
closed = 1;
nodes = (
(158,-13,o),
(190,-3,o),
(213,21,c),
(177,68,o),
(164,124,o),
(164,249,cs),
(164,433,o),
(166,616,o),
(168,800,c),
(168,800,o),
(144,802,o),
(120,802,cs),
(90,802,o),
(70,800,o),
(70,800,c),
(72,604,o),
(74,409,o),
(74,213,cs),
(74,89,o),
(86,26,o),
(120,-19,c)
);
}
);
width = 258;
}
);
unicode = 108;
},
{
glyphname = m;
lastChange = "2021-09-29 08:09:49 +0000";
layers = (
{
anchors = (
{
name = bottom;
pos = (459,0);
},
{
name = top;
pos = (459,550);
}
);
background = {
shapes = (
{
closed = 1;
nodes = (
(812,-17,o),
(851,2,o),
(866,28,c),
(866,28,o),
(840,69,o),
(840,149,cs),
(840,329,ls),
(840,502,o),
(786,566,o),
(653,566,cs),
(540,566,o),
(447,474,o),
(447,368,c),
(503,276,l),
(503,432,o),
(564,477,o),
(647,477,cs),
(713,477,o),
(750,454,o),
(750,339,cs),
(750,132,ls),
(750,13,o),
(776,-19,o),
(776,-19,c)
);
},
{
closed = 1;
nodes = (
(499,-2,o),
(523,0,o),
(523,0,c),
(523,0,o),
(503,90,o),
(503,276,cs),
(503,474,o),
(450,566,o),
(310,566,cs),
(208,566,o),
(118,497,o),
(98,410,c),
(154,362,l),
(174,422,o),
(204,477,o),
(295,477,cs),
(377,477,o),
(413,440,o),
(413,286,cs),
(413,160,o),
(411,0,o),
(411,0,c),
(411,0,o),
(433,-2,o),
(464,-2,cs)
);
},
{
closed = 1;
nodes = (
(163,-4,o),
(182,0,o),
(182,0,c),
(182,0,o),
(165,104,o),
(165,290,cs),
(165,412,o),
(177,461,o),
(177,461,c),
(128,550,l),
(71,550,l),
(71,550,o),
(75,397,o),
(75,286,cs),
(75,160,o),
(73,0,o),
(73,0,c),
(73,0,o),
(97,-4,o),
(128,-4,cs)
);
}
);
};
layerId = master01;
shapes = (
{
closed = 1;
nodes = (
(804,-18,o),
(840,4,o),
(850,25,c),
(850,25,o),
(824,58,o),
(824,149,cs),
(824,349,ls),
(824,495,o),
(778,563,o),
(669,563,cs),
(532,563,o),
(450,448,o),
(450,448,c),
(486,413,l),
(486,403,o),
(552,474,o),
(636,474,cs),
(709,474,o),
(734,420,o),
(734,326,cs),
(734,127,ls),
(734,83,o),
(740,6,o),
(760,-22,c)
);
},
{
closed = 1;
nodes = (
(179,0,l),
(179,0,o),
(165,104,o),
(165,290,cs),
(165,412,o),
(177,461,o),
(177,461,c),
(128,550,l),
(71,550,l),
(71,550,o),
(75,397,o),
(75,286,cs),
(75,160,o),
(70,0,o),
(70,0,c)
);
},
{
closed = 1;
nodes = (
(502,0,l),
(499,30,o),
(492,90,o),
(492,152,cs),
(492,364,ls),
(492,498,o),
(444,566,o),
(327,566,cs),
(196,566,o),
(118,451,o),
(118,451,c),
(154,416,l),
(154,406,o),
(216,477,o),
(294,477,cs),
(374,477,o),
(402,423,o),
(402,329,cs),
(402,152,ls),
(402,86,o),
(396,33,o),
(393,0,c)
);
}
);
width = 895;
}
);
unicode = 109;
},
{
glyphname = n;
lastChange = "2021-09-29 08:09:49 +0000";
layers = (
{
anchors = (
{
name = bottom;
pos = (291,0);
},
{
name = top;
pos = (305,550);
}
);
layerId = master01;
shapes = (
{
closed = 1;
nodes = (
(483,-15,o),
(519,7,o),
(529,28,c),
(529,28,o),
(503,61,o),
(503,152,cs),
(503,352,ls),
(503,498,o),
(456,566,o),
(338,566,cs),
(201,566,o),
(119,451,o),
(119,451,c),
(155,416,l),
(155,406,o),
(221,477,o),
(305,477,cs),
(385,477,o),
(413,423,o),
(413,329,cs),
(413,130,ls),
(413,86,o),
(419,9,o),
(439,-19,c)
);
},
{
closed = 1;
nodes = (
(177,0,l),
(177,0,o),
(165,111,o),
(165,278,cs),
(165,419,o),
(177,461,o),
(177,461,c),
(128,550,l),
(71,550,l),
(71,550,o),
(75,408,o),
(75,269,cs),
(75,171,o),
(68,0,o),
(68,0,c)
);
}
);
width = 574;
}
);
unicode = 110;
},
{
glyphname = o;
kernLeft = o;
kernRight = o;
lastChange = "2021-09-29 08:53:52 +0000";
layers = (
{
anchors = (
{
name = Top;
pos = (294,587);
},
{
name = bottom;
pos = (294,0);
},
{
name = center;
pos = (294,275);
},
{
name = ogonek;
pos = (525,10);
},
{
name = top;
pos = (294,550);
},
{
name = topright;
pos = (563,550);
}
);
layerId = master01;
shapes = (
{
closed = 1;
nodes = (
(447,-16,o),
(543,85,o),
(543,275,cs),
(543,465,o),
(447,566,o),
(294,566,cs),
(141,566,o),
(45,465,o),
(45,275,cs),
(45,85,o),
(141,-16,o),
(294,-16,cs)
);
},
{
closed = 1;
nodes = (
(216,64,o),
(144,125,o),
(144,275,cs),
(144,425,o),
(216,486,o),
(294,486,cs),
(372,486,o),
(444,425,o),
(444,275,cs),
(444,125,o),
(371,64,o),
(294,64,cs)
);
}
);
width = 588;
}
);
unicode = 111;
changeCount = 3;
},
{
glyphname = p;
layers = (
{
anchors = (
{
name = bottom;
pos = (300,0);
},
{
name = top;
pos = (300,550);
}
);
layerId = master01;
shapes = (
{
closed = 1;
nodes = (
(457,-15,o),
(552,104,o),
(552,275,cs),
(552,484,o),
(444,566,o),
(323,566,cs),
(174,566,o),
(124,425,o),
(124,425,c),
(165,335,l),
(165,428,o),
(236,485,o),
(303,485,cs),
(398,485,o),
(451,430,o),
(451,275,cs),
(451,151,o),
(388,64,o),
(301,64,cs),
(215,64,o),
(165,110,o),
(165,252,c),
(111,152,l),
(111,69,o),
(197,-15,o),
(309,-15,cs)
);
},
{
closed = 1;
nodes = (
(150,-203,o),
(178,-200,o),
(178,-200,c),
(178,-200,o),
(165,-144,o),
(165,80,cs),
(165,471,l),
(176,471,l),
(124,553,l),
(73,553,l),
(73,553,o),
(75,523,o),
(75,265,cs),
(75,161,ls),
(75,-109,o),
(70,-200,o),
(70,-200,c),
(70,-200,o),
(90,-203,o),
(120,-203,cs)
);
}
);
width = 597;
}
);
unicode = 112;
},
{
glyphname = q;
layers = (
{
anchors = (
{
name = bottom;
pos = (284,0);
},
{
name = top;
pos = (284,550);
}
);
layerId = master01;
shapes = (
{
closed = 1;
nodes = (
(407,-16,o),
(477,100,o),
(477,223,c),
(418,215,l),
(418,128,o),
(354,64,o),
(286,64,cs),
(217,64,o),
(143,136,o),
(143,275,cs),
(143,391,o),
(189,485,o),
(287,485,cs),
(378,485,o),
(418,406,o),
(418,341,c),
(479,349,l),
(479,425,o),
(427,566,o),
(276,566,cs),
(145,566,o),
(45,460,o),
(45,275,cs),
(45,77,o),
(160,-16,o),
(279,-16,cs)
);
},
{
closed = 1;
nodes = (
(508,-188,o),
(508,-99,o),
(508,-55,cs),
(508,553,l),
(452,553,l),
(418,488,l),
(418,-45,ls),
(418,-120,o),
(399,-185,o),
(399,-185,c),
(413,-205,o),
(449,-216,o),
(488,-216,c)
);
}
);
width = 578;
}
);
unicode = 113;
},
{
glyphname = r;
lastChange = "2021-09-29 08:41:12 +0000";
layers = (
{
anchors = (
{
name = bottom;
pos = (194,0);
},
{
name = top;
pos = (194,550);
}
);
layerId = master01;
shapes = (
{
closed = 1;
nodes = (
(164,414,o),
(202,480,o),
(268,480,cs),
(311,480,o),
(333,453,o),
(333,453,c),
(352,471,o),
(370,505,o),
(375,534,c),
(375,534,o),
(338,566,o),
(281,566,cs),
(180,566,o),
(126,465,o),
(116,340,c),
(164,321,l)
);
},
{
closed = 1;
nodes = (
(156,-2,o),
(180,0,o),
(180,0,c),
(180,0,o),
(164,104,o),
(164,290,cs),
(164,481,l),
(127,550,l),
(70,550,l),
(70,550,o),
(74,408,o),
(74,269,cs),
(74,171,o),
(68,0,o),
(68,0,c),
(68,0,o),
(90,-2,o),
(121,-2,cs)
);
}
);
width = 390;
}
);
metricLeft = n;
unicode = 114;
},
{
glyphname = s;
lastChange = "2021-09-29 08:48:12 +0000";
layers = (
{
anchors = (
{
name = bottom;
pos = (258,0);
},
{
name = top;
pos = (258,550);
}
);
layerId = master01;
shapes = (
{
closed = 1;
nodes = (
(381,-9,o),
(464,59,o),
(464,152,cs),
(464,253,o),
(368,304,o),
(291,336,cs),
(210,370,o),
(167,378,o),
(167,428,cs),
(167,466,o),
(193,494,o),
(259,494,cs),
(342,494,o),
(391,449,o),
(391,449,c),
(391,449,o),
(406,465,o),
(415,484,cs),
(424,503,o),
(428,524,o),
(428,524,c),
(428,526,o),
(358,566,o),
(262,566,cs),
(150,566,o),
(70,511,o),
(70,421,cs),
(70,319,o),
(174,277,o),
(248,250,cs),
(292,234,o),
(370,205,o),
(370,150,cs),
(370,112,o),
(337,65,o),
(263,65,cs),
(166,65,o),
(93,141,o),
(93,141,c),
(93,141,o),
(82,135,o),
(64,107,cs),
(49,84,o),
(45,66,o),
(45,66,c),
(45,66,o),
(128,-9,o),
(258,-9,cs)
);
}
);
width = 514;
}
);
unicode = 115;
},
{
glyphname = t;
lastChange = "2021-09-29 08:45:37 +0000";
layers = (
{
anchors = (
{
name = bottom;
pos = (229,0);
},
{
name = center;
pos = (229,275);
},
{
name = top;
pos = (229,550);
},
{
name = topright;
pos = (430,800);
}
);
background = {
shapes = (
{
closed = 1;
nodes = (
(169,556,o),
(109,557,o),
(90,551,c),
(92,509,o),
(92,456,o),
(93,395,cs),
(95,195,ls),
(96,49,o),
(142,-19,o),
(260,-19,cs),
(397,-19,o),
(479,96,o),
(479,96,c),
(443,131,l),
(443,141,o),
(377,70,o),
(293,70,cs),
(213,70,o),
(184,124,o),
(185,218,cs),
(187,396,ls),
(187,440,o),
(191,512,o),
(191,550,c)
);
}
);
};
layerId = master01;
shapes = (
{
closed = 1;
nodes = (
(302,-17,o),
(360,-5,o),
(400,22,c),
(396,46,o),
(385,80,o),
(366,98,c),
(346,81,o),
(320,66,o),
(281,66,cs),
(216,66,o),
(190,124,o),
(190,199,cs),
(190,326,o),
(189,558,o),
(194,680,c),
(194,680,o),
(174,682,o),
(144,682,cs),
(114,682,o),
(94,680,o),
(94,680,c),
(96,579,o),
(100,244,o),
(100,189,cs),
(100,37,o),
(153,-17,o),
(262,-17,cs)
);
},
{
closed = 1;
nodes = (
(375,492,o),
(376,534,o),
(370,556,c),
(370,556,o),
(300,550,o),
(182,550,cs),
(18,550,l),
(14,523,o),
(14,494,o),
(18,465,c),
(187,465,ls),
(323,465,o),
(370,468,o),
(370,468,c)
);
}
);
width = 415;
}
);
unicode = 116;
},
{
glyphname = u;
kernLeft = a;
lastChange = "2021-09-29 08:44:04 +0000";
layers = (
{
anchors = (
{
name = bottom;
pos = (294,0);
},
{
name = ogonek;
pos = (518,10);
},
{
name = top;
pos = (294,550);
},
{
name = topright;
pos = (554,550);
}
);
background = {
shapes = (
{
closed = 1;
nodes = (
(488,-15,o),
(524,7,o),
(534,28,c),
(534,28,o),
(508,61,o),
(508,152,cs),
(508,281,l),
(513,550,l),
(513,550,o),
(493,552,o),
(463,552,cs),
(433,552,o),
(413,550,o),
(413,550,c),
(416,487,o),
(418,386,o),
(418,281,cs),
(418,130,ls),
(418,86,o),
(424,9,o),
(444,-19,c)
);
},
{
closed = 0;
nodes = (
(249,-16,ls),
(353,-16,o),
(417,49,o),
(468,123,c),
(429,168,l)
);
}
);
};
layerId = master01;
shapes = (
{
closed = 1;
nodes = (
(370,-15,o),
(454,100,o),
(454,100,c),
(418,131,l),
(406,123,o),
(350,74,o),
(266,74,cs),
(186,74,o),
(157,128,o),
(158,222,cs),
(160,396,ls),
(161,440,o),
(164,512,o),
(164,550,c),
(142,556,o),
(82,557,o),
(63,551,c),
(65,509,o),
(65,456,o),
(66,395,cs),
(68,199,ls),
(69,53,o),
(115,-15,o),
(233,-15,cs)
);
},
{
closed = 1;
nodes = (
(488,-15,o),
(524,7,o),
(534,28,c),
(534,28,o),
(508,61,o),
(508,152,cs),
(508,281,l),
(513,550,l),
(513,550,o),
(493,552,o),
(463,552,cs),
(433,552,o),
(413,550,o),
(413,550,c),
(416,487,o),
(418,386,o),
(418,281,cs),
(418,134,ls),
(418,90,o),
(424,9,o),
(444,-19,c)
);
}
);
width = 579;
}
);
metricLeft = "=n-5";
metricRight = a;
unicode = 117;
},
{
glyphname = v;
lastChange = "2021-09-29 08:09:46 +0000";
layers = (
{
anchors = (
{
name = bottom;
pos = (262,0);
},
{
name = top;
pos = (262,550);
}
);
background = {
shapes = (
{
closed = 0;
nodes = (
(124,550,l)
);
}
);
};
layerId = master01;
shapes = (
{
closed = 1;
nodes = (
(321,0,l),
(503,550,l),
(503,550,o),
(495,555,o),
(454,555,cs),
(404,555,o),
(399,550,o),
(399,550,c),
(290,183,l),
(255,47,l),
(229,57,l),
(217,0,l)
);
},
{
closed = 1;
nodes = (
(306,0,l),
(294,57,l),
(268,47,l),
(233,183,l),
(124,550,l),
(124,550,o),
(119,555,o),
(69,555,cs),
(28,555,o),
(20,550,o),
(20,550,c),
(202,0,l)
);
}
);
width = 523;
}
);
unicode = 118;
},
{
glyphname = w;
layers = (
{
anchors = (
{
name = bottom;
pos = (395,0);
},
{
name = top;
pos = (395,550);
}
);
layerId = master01;
shapes = (
{
closed = 1;
nodes = (
(620,0,l),
(770,550,l),
(738,560,o),
(705,562,o),
(671,550,c),
(599,275,l),
(558,47,l),
(526,57,l),
(524,0,l)
);
},
{
closed = 1;
nodes = (
(266,0,l),
(264,57,l),
(232,47,l),
(191,275,l),
(119,550,l),
(84,560,o),
(52,557,o),
(20,550,c),
(170,0,l)
);
},
{
closed = 1;
nodes = (
(289,0,l),
(337,211,l),
(395,477,l),
(430,550,l),
(338,550,l),
(265,249,l),
(222,47,l),
(200,57,l),
(188,0,l)
);
},
{
closed = 1;
nodes = (
(602,0,l),
(590,57,l),
(568,47,l),
(525,249,l),
(452,550,l),
(360,550,l),
(395,477,l),
(453,211,l),
(501,0,l)
);
}
);
width = 790;
}
);
unicode = 119;
},
{
glyphname = x;
lastChange = "2021-09-29 07:54:43 +0000";
layers = (
{
anchors = (
{
name = bottom;
pos = (254,0);
},
{
name = top;
pos = (254,550);
}
);
layerId = master01;
shapes = (
{
closed = 1;
nodes = (
(114,-3,o),
(131,0,o),
(131,0,c),
(300,289,l),
(195,289,l),
(99,129,ls),
(34,20,o),
(20,0,o),
(20,0,c),
(20,0,o),
(39,-3,o),
(74,-3,cs)
);
},
{
closed = 1;
nodes = (
(471,-3,o),
(488,0,o),
(488,0,c),
(490,0,o),
(472,23,o),
(410,132,cs),
(347,243,o),
(315,289,o),
(315,289,c),
(212,289,l),
(379,0,l),
(379,0,o),
(395,-3,o),
(438,-3,cs)
);
},
{
closed = 1;
nodes = (
(288,289,l),
(145,550,l),
(145,550,o),
(136,556,o),
(92,556,cs),
(54,556,o),
(34,550,o),
(34,550,c),
(34,550,o),
(43,530,o),
(113,420,cs),
(183,310,o),
(195,289,o),
(195,289,c)
);
},
{
closed = 1;
nodes = (
(315,289,l),
(398,420,ls),
(466,527,o),
(477,556,o),
(477,550,c),
(477,550,o),
(465,556,o),
(430,556,cs),
(374,556,o),
(366,550,o),
(366,550,c),
(223,289,l)
);
}
);
width = 508;
}
);
unicode = 120;
},
{
glyphname = y;
layers = (
{
layerId = master01;
shapes = (
{
closed = 1;
nodes = (
(208,-209,o),
(265,-170,o),
(310,-65,cs),
(347,22,o),
(348,39,o),
(426,275,cs),
(497,490,o),
(519,550,o),
(519,550,c),
(519,550,o),
(500,558,o),
(465,558,cs),
(430,558,o),
(420,550,o),
(420,550,c),
(254,13,ls),
(225,-81,o),
(179,-123,o),
(137,-143,cs),
(132,-145,o),
(143,-171,o),
(161,-189,cs),
(179,-207,o),
(208,-209,o),
(208,-209,c)
);
},
{
closed = 1;
nodes = (
(249,-6,o),
(283,76,o),
(291,109,c),
(129,550,l),
(129,550,o),
(119,558,o),
(72,558,cs),
(37,558,o),
(20,550,o),
(20,550,c),
(249,-6,l)
);
}
);
width = 539;
}
);
unicode = 121;
},
{
glyphname = z;
lastChange = "2021-09-29 06:50:53 +0000";
layers = (
{
anchors = (
{
name = bottom;
pos = (257,0);
},
{
name = center;
pos = (257,275);
},
{
name = top;
pos = (257,550);
}
);
background = {
shapes = (
{
closed = 1;
nodes = (
(618,-14,o),
(658,0,o),
(680,23,c),
(680,23,o),
(648,78,o),
(648,163,cs),
(648,361,ls),
(648,434,o),
(630,486,o),
(594,518,cs),
(558,550,o),
(501,566,o),
(424,566,cs),
(331,566,o),
(265,548,o),
(265,548,c),
(265,548,o),
(259,538,o),
(259,514,cs),
(259,478,o),
(272,452,o),
(272,452,c),
(272,452,o),
(327,480,o),
(424,480,cs),
(522,480,o),
(553,432,o),
(553,345,cs),
(553,273,l),
(554,273,l),
(554,120,ls),
(554,79,o),
(564,10,o),
(584,-18,c)
);
},
{
closed = 1;
nodes = (
(506,-16,o),
(583,81,o),
(583,165,c),
(554,206,l),
(554,121,o),
(489,69,o),
(417,69,cs),
(364,69,o),
(337,104,o),
(337,159,cs),
(337,230,o),
(391,265,o),
(499,265,cs),
(532,265,o),
(561,262,o),
(583,260,c),
(583,327,l),
(583,327,o),
(549,333,o),
(478,333,cs),
(320,333,o),
(237,274,o),
(237,154,cs),
(237,42,o),
(305,-16,o),
(379,-16,cs)
);
}
);
};
layerId = master01;
shapes = (
{
closed = 1;
nodes = (
(464,20,o),
(464,79,o),
(458,98,c),
(376,78,o),
(219,78,cs),
(144,78,l),
(147,38,l),
(246,187,l),
(473,534,l),
(473,550,l),
(213,550,l),
(58,554,l),
(50,530,o),
(50,471,o),
(56,452,c),
(146,472,o),
(252,472,cs),
(377,472,l),
(370,526,l),
(274,384,l),
(40,18,l),
(40,0,l),
(271,0,l),
(456,-4,l)
);
}
);
width = 513;
}
);
unicode = 122;
},
{
glyphname = g.ss01;
lastChange = "2021-09-29 08:21:32 +0000";
layers = (
{
anchors = (
{
name = bottom;
pos = (291,-200);
},
{
name = top;
pos = (291,550);
}
);
background = {
guides = (
{
pos = (30,514);
},
{
pos = (30,514);
}
);
shapes = (
{
closed = 1;
nodes = (
(40,-262,l),
(130,-262,l),
(130,369,l),
(40,369,l)
);
},
{
closed = 1;
nodes = (
(452,-292,l),
(542,-292,l),
(542,339,l),
(452,339,l)
);
},
{
closed = 1;
nodes = (
(32,-214,l),
(556,-214,l),
(556,-136,l),
(32,-136,l)
);
},
{
closed = 1;
nodes = (
(29,0,l),
(553,0,l),
(553,78,l),
(29,78,l)
);
}
);
};
layerId = master01;
shapes = (
{
closed = 1;
nodes = (
(400,-214,o),
(522,-186,o),
(522,-60,cs),
(522,35,o),
(453,64,o),
(331,64,cs),
(292,64,ls),
(249,64,o),
(152,48,o),
(152,128,cs),
(152,163,o),
(170,185,o),
(197,206,c),
(159,238,l),
(111,214,o),
(62,173,o),
(62,108,cs),
(62,16,o),
(158,-4,o),
(274,-4,cs),
(337,-4,ls),
(397,-4,o),
(432,-22,o),
(432,-67,cs),
(432,-136,o),
(348,-144,o),
(283,-144,cs),
(226,-144,o),
(126,-138,o),
(126,-50,cs),
(126,5,o),
(165,42,o),
(174,52,c),
(139,83,l),
(86,56,o),
(40,11,o),
(40,-66,cs),
(40,-189,o),
(159,-214,o),
(276,-214,cs)
);
},
{
closed = 1;
nodes = (
(397,152,o),
(489,235,o),
(489,359,cs),
(489,417,o),
(469,469,o),
(430,508,cs),
(390,547,o),
(337,566,o),
(281,566,cs),
(164,566,o),
(74,481,o),
(74,359,cs),
(74,301,o),
(94,249,o),
(133,210,cs),
(172,172,o),
(225,152,o),
(282,152,cs)
);
},
{
closed = 1;
nodes = (
(210,223,o),
(169,277,o),
(169,359,cs),
(169,442,o),
(209,495,o),
(282,495,cs),
(356,495,o),
(394,441,o),
(394,359,cs),
(394,276,o),
(355,223,o),
(282,223,cs)
);
},
{
closed = 1;
nodes = (
(439,480,o),
(478,483,o),
(500,491,cs),
(519,498,o),
(530,510,o),
(530,542,cs),
(530,566,o),
(524,580,o),
(511,585,c),
(498,575,o),
(469,561,o),
(444,553,cs),
(414,543,o),
(381,538,o),
(352,538,c),
(352,480,l)
);
}
);
width = 570;
}
);
},
{
glyphname = zero;
layers = (
{
layerId = master01;
shapes = (
{
closed = 1;
nodes = (
(503,-16,o),
(605,87,o),
(605,375,cs),
(605,663,o),
(503,766,o),
(335,766,cs),
(167,766,o),
(60,663,o),
(60,375,cs),
(60,87,o),
(167,-16,o),
(335,-16,cs)
);
},
{
closed = 1;
nodes = (
(242,64,o),
(165,146,o),
(165,375,cs),
(165,604,o),
(242,686,o),
(335,686,cs),
(428,686,o),
(500,604,o),
(500,375,cs),
(500,146,o),
(428,64,o),
(335,64,cs)
);
}
);
width = 665;
}
);
unicode = 48;
},
{
glyphname = one;
lastChange = "2021-09-29 06:54:32 +0000";
layers = (
{
background = {
shapes = (
{
closed = 0;
nodes = (
(259,0,l),
(495,0,l),
(502,22,o),
(501,64,o),
(495,83,c)
);
}
);
};
layerId = master01;
shapes = (
{
closed = 1;
nodes = (
(337,0,l),
(337,0,o),
(330,117,o),
(330,335,cs),
(330,415,ls),
(330,616,o),
(336,750,o),
(336,750,c),
(228,750,l),
(228,750,o),
(233,616,o),
(233,415,cs),
(233,335,ls),
(233,117,o),
(226,0,o),
(226,0,c)
);
},
{
closed = 1;
nodes = (
(475,0,l),
(479,26,o),
(479,53,o),
(475,83,c),
(345,73,o),
(218,74,o),
(88,83,c),
(78,53,o),
(79,26,o),
(86,0,c)
);
},
{
closed = 1;
nodes = (
(234,658,l),
(228,750,l),
(40,593,l),
(47,566,o),
(77,535,o),
(101,526,c)
);
}
);
width = 511;
}
);
unicode = 49;
},
{
glyphname = two;
lastChange = "2021-09-29 08:09:49 +0000";
layers = (
{
background = {
shapes = (
{
closed = 0;
nodes = (
(59,0,l),
(507,0,l)
);
}
);
};
layerId = master01;
shapes = (
{
closed = 1;
nodes = (
(511,0,l),
(516,30,o),
(515,62,o),
(511,94,c),
(394,85,o),
(280,81,o),
(167,89,c),
(167,234,o),
(510,357,o),
(510,556,cs),
(510,687,o),
(389,765,o),
(280,766,cs),
(131,766,o),
(40,662,o),
(40,662,c),
(40,662,o),
(39,644,o),
(55,617,cs),
(77,581,o),
(94,572,o),
(94,572,c),
(94,572,o),
(156,685,o),
(261,685,cs),
(340,685,o),
(403,632,o),
(403,558,cs),
(403,389,o),
(59,308,o),
(59,90,cs),
(59,0,l)
);
}
);
width = 574;
}
);
unicode = 50;
},
{
glyphname = three;
layers = (
{
layerId = master01;
shapes = (
{
closed = 1;
nodes = (
(388,-9,o),
(519,68,o),
(519,220,cs),
(519,390,o),
(357,418,o),
(357,418,c),
(357,418,o),
(493,445,o),
(493,579,cs),
(493,678,o),
(420,769,o),
(270,769,cs),
(123,769,o),
(62,681,o),
(62,681,c),
(68,662,o),
(98,623,o),
(122,610,c),
(141,633,o),
(169,690,o),
(265,690,cs),
(337,690,o),
(388,649,o),
(388,578,cs),
(388,452,o),
(226,457,o),
(218,457,c),
(218,380,l),
(218,380,o),
(411,367,o),
(411,221,cs),
(411,133,o),
(341,66,o),
(254,72,cs),
(159,78,o),
(90,154,o),
(90,154,c),
(74,146,o),
(40,96,o),
(40,76,c),
(63,55,o),
(136,-9,o),
(256,-9,cs)
);
}
);
width = 579;
}
);
unicode = 51;
},
{
glyphname = four;
lastChange = "2021-09-29 06:51:34 +0000";
layers = (
{
layerId = master01;
shapes = (
{
closed = 1;
nodes = (
(66,270,o),
(122,269,o),
(129,279,cs),
(150,309,o),
(418,695,o),
(418,694,c),
(360,750,l),
(360,750,o),
(20,273,o),
(20,272,c)
);
},
{
closed = 1;
nodes = (
(545,232,o),
(546,278,o),
(539,302,c),
(539,302,o),
(426,295,o),
(308,295,cs),
(65,295,l),
(20,272,l),
(20,211,l),
(310,211,ls),
(445,211,o),
(539,206,o),
(539,206,c)
);
},
{
closed = 1;
nodes = (
(472,0,l),
(472,0,o),
(465,117,o),
(465,335,cs),
(465,415,ls),
(465,616,o),
(471,750,o),
(471,750,c),
(363,750,l),
(363,750,o),
(368,616,o),
(368,415,cs),
(368,335,ls),
(368,117,o),
(361,0,o),
(361,0,c)
);
}
);
width = 574;
}
);
unicode = 52;
},
{
glyphname = five;
lastChange = "2021-09-29 08:09:19 +0000";
layers = (
{
layerId = master01;
shapes = (
{
closed = 1;
nodes = (
(428,-15,o),
(521,83,o),
(521,234,cs),
(521,367,o),
(449,474,o),
(296,474,cs),
(241,474,o),
(171,461,o),
(73,396,c),
(136,343,l),
(173,374,o),
(217,397,o),
(276,397,cs),
(370,397,o),
(426,339,o),
(426,230,cs),
(426,131,o),
(379,63,o),
(278,63,cs),
(208,63,o),
(150,95,o),
(101,140,c),
(101,140,o),
(83,122,o),
(73,100,cs),
(62,77,o),
(60,53,o),
(60,53,c),
(102,14,o),
(190,-15,o),
(274,-15,cs)
);
},
{
closed = 1;
nodes = (
(73,396,o),
(138,421,o),
(162,434,c),
(202,661,l),
(317,661,ls),
(434,661,o),
(493,652,o),
(493,652,c),
(499,671,o),
(499,730,o),
(491,754,c),
(491,754,o),
(397,750,o),
(356,750,cs),
(126,750,l),
(126,742,l),
(73,396,l)
);
}
);
width = 581;
}
);
unicode = 53;
},
{
glyphname = six;
lastChange = "2021-09-29 08:30:27 +0000";
layers = (
{
layerId = master01;
shapes = (
{
closed = 1;
nodes = (
(459,-16,o),
(559,85,o),
(559,242,cs),
(559,401,o),
(457,495,o),
(328,495,cs),
(158,495,o),
(119,333,o),
(119,333,c),
(163,353,l),
(163,584,o),
(243,686,o),
(351,686,cs),
(388,686,o),
(437,671,o),
(463,648,c),
(485,657,o),
(511,696,o),
(513,721,c),
(485,744,o),
(427,766,o),
(357,766,cs),
(200,766,o),
(60,654,o),
(60,346,cs),
(60,72,o),
(171,-16,o),
(310,-16,cs)
);
},
{
closed = 1;
nodes = (
(221,64,o),
(165,124,o),
(165,240,cs),
(165,362,o),
(227,415,o),
(313,415,cs),
(396,415,o),
(454,366,o),
(454,244,cs),
(454,108,o),
(381,64,o),
(307,64,cs)
);
}
);
width = 619;
}
);
unicode = 54;
},
{
glyphname = seven;
lastChange = "2021-09-29 08:09:49 +0000";
layers = (
{
layerId = master01;
shapes = (
{
closed = 1;
nodes = (
(225,0,l),
(290,243,o),
(372,491,o),
(456,742,c),
(456,750,l),
(186,750,ls),
(105,750,o),
(31,754,o),
(31,754,c),
(23,730,o),
(23,671,o),
(29,652,c),
(29,652,o),
(98,666,o),
(198,666,cs),
(334,666,l),
(261,444,o),
(187,195,o),
(114,0,c)
);
}
);
width = 476;
}
);
unicode = 55;
},
{
glyphname = eight;
layers = (
{
layerId = master01;
shapes = (
{
closed = 1;
nodes = (
(443,-15,o),
(550,66,o),
(550,211,cs),
(550,351,o),
(443,437,o),
(300,437,cs),
(157,437,o),
(50,351,o),
(50,211,cs),
(50,66,o),
(157,-15,o),
(300,-15,cs)
);
},
{
closed = 1;
nodes = (
(222,65,o),
(152,111,o),
(152,211,cs),
(152,311,o),
(222,360,o),
(300,360,cs),
(378,360,o),
(448,311,o),
(448,211,cs),
(448,111,o),
(377,65,o),
(300,65,cs)
);
},
{
closed = 1;
nodes = (
(232,453,o),
(183,496,o),
(183,571,cs),
(183,646,o),
(232,686,o),
(300,686,cs),
(368,686,o),
(417,646,o),
(417,571,cs),
(417,495,o),
(368,453,o),
(300,453,cs)
);
},
{
closed = 1;
nodes = (
(443,385,o),
(519,461,o),
(519,571,cs),
(519,674,o),
(443,766,o),
(300,766,cs),
(157,766,o),
(81,674,o),
(81,571,cs),
(81,461,o),
(157,385,o),
(300,385,cs)
);
}
);
width = 600;
}
);
unicode = 56;
},
{
glyphname = nine;
lastChange = "2021-09-29 08:30:39 +0000";
layers = (
{
layerId = master01;
shapes = (
{
closed = 1;
nodes = (
(448,-16,o),
(559,116,o),
(559,422,cs),
(559,673,o),
(448,766,o),
(300,766,cs),
(167,766,o),
(60,665,o),
(60,515,cs),
(60,344,o),
(162,255,o),
(296,255,cs),
(459,255,o),
(500,417,o),
(500,417,c),
(456,397,l),
(456,185,o),
(410,65,o),
(254,65,cs),
(175,65,o),
(116,123,o),
(116,123,c),
(93,116,o),
(69,77,o),
(69,52,c),
(69,52,o),
(124,-16,o),
(262,-16,cs)
);
},
{
closed = 1;
nodes = (
(223,335,o),
(165,382,o),
(165,515,cs),
(165,635,o),
(238,686,o),
(306,686,cs),
(401,686,o),
(454,626,o),
(454,508,cs),
(454,388,o),
(393,335,o),
(301,335,cs)
);
}
);
width = 619;
}
);
unicode = 57;
},
{
glyphname = period;
layers = (
{
layerId = master01;
shapes = (
{
closed = 1;
nodes = (
(176,-35,o),
(209,-2,o),
(209,40,cs),
(209,83,o),
(176,114,o),
(134,114,cs),
(91,114,o),
(60,83,o),
(60,40,cs),
(60,-2,o),
(91,-35,o),
(134,-35,cs)
);
}
);
width = 269;
}
);
unicode = 46;
},
{
glyphname = comma;
lastChange = "2021-09-29 08:09:46 +0000";
layers = (
{
background = {
shapes = (
{
closed = 1;
nodes = (
(114,-16,o),
(82,1,o),
(82,45,cs),
(82,79,o),
(109,106,o),
(143,106,cs),
(177,106,o),
(206,79,o),
(206,29,c),
(114,-133,l),
(101,-117,l),
(142,-16,l)
);
}
);
};
layerId = master01;
shapes = (
{
closed = 1;
nodes = (
(157,-115,o),
(208,-8,o),
(216,76,c),
(134,86,l),
(134,0,o),
(111,-85,o),
(60,-156,c),
(65,-169,o),
(90,-186,o),
(105,-187,c)
);
},
{
closed = 1;
nodes = (
(183,0,o),
(216,33,o),
(216,76,cs),
(216,118,o),
(183,150,o),
(141,150,cs),
(98,150,o),
(67,118,o),
(67,76,cs),
(67,33,o),
(98,0,o),
(141,0,cs)
);
}
);
width = 276;
}
);
unicode = 44;
},
{
glyphname = exclam;
layers = (
{
layerId = master01;
shapes = (
{
closed = 1;
nodes = (
(166,183,l),
(167,496,o),
(173,568,o),
(180,743,c),
(180,743,o),
(152,749,o),
(122,749,cs),
(92,749,o),
(67,743,o),
(67,743,c),
(75,509,o),
(79,337,o),
(81,183,c)
);
},
{
closed = 1;
nodes = (
(155,-33,o),
(184,-5,o),
(184,29,cs),
(184,63,o),
(155,92,o),
(121,92,cs),
(87,92,o),
(60,63,o),
(60,29,cs),
(60,-5,o),
(87,-33,o),
(121,-33,cs)
);
}
);
width = 244;
}
);
unicode = 33;
},
{
glyphname = question;
lastChange = "2021-09-29 06:59:42 +0000";
layers = (
{
layerId = master01;
shapes = (
{
closed = 1;
nodes = (
(268,176,l),
(264,212,o),
(265,245,o),
(265,281,cs),
(265,293,o),
(274,309,o),
(303,336,cs),
(384,410,o),
(498,461,o),
(498,600,cs),
(498,719,o),
(414,808,o),
(277,808,cs),
(132,808,o),
(50,695,o),
(50,695,c),
(55,673,o),
(94,637,o),
(115,631,c),
(143,669,o),
(187,728,o),
(269,728,cs),
(347,728,o),
(400,675,o),
(400,593,cs),
(400,437,o),
(177,413,o),
(177,286,cs),
(177,211,o),
(174,176,o),
(174,176,c)
);
},
{
closed = 1;
nodes = (
(254,-33,o),
(283,-5,o),
(283,29,cs),
(283,63,o),
(254,92,o),
(220,92,cs),
(186,92,o),
(159,63,o),
(159,29,cs),
(159,-5,o),
(186,-33,o),
(220,-33,cs)
);
}
);
width = 558;
}
);
unicode = 63;
},
{
glyphname = asterisk;
layers = (
{
layerId = master01;
shapes = (
{
closed = 1;
nodes = (
(336,409,o),
(367,433,o),
(386,452,c),
(262,585,l),
(426,616,l),
(421,646,o),
(409,684,o),
(397,708,c),
(246,638,l),
(266,803,l),
(240,808,o),
(200,808,o),
(170,803,c),
(190,638,l),
(39,710,l),
(27,686,o),
(15,647,o),
(10,617,c),
(174,586,l),
(50,454,l),
(69,435,o),
(100,410,o),
(128,397,c),
(218,553,l),
(308,396,l)
);
}
);
width = 436;
}
);
unicode = 42;
},
{
glyphname = numbersign;
lastChange = "2021-09-29 08:09:49 +0000";
layers = (
{
layerId = master01;
shapes = (
{
closed = 1;
nodes = (
(199,0,l),
(199,0,o),
(226,190,o),
(254,379,cs),
(282,565,o),
(311,750,o),
(311,750,c),
(219,750,l),
(219,750,o),
(193,565,o),
(166,379,cs),
(137,190,o),
(107,0,o),
(107,0,c)
);
},
{
closed = 1;
nodes = (
(20,216,o),
(200,222,o),
(315,222,cs),
(321,222,l),
(606,217,ls),
(607,217,o),
(612,233,o),
(615,262,cs),
(618,292,o),
(617,301,o),
(617,301,c),
(617,301,o),
(447,297,o),
(332,297,cs),
(326,297,l),
(31,300,l),
(31,300,o),
(24,292,o),
(21,262,cs),
(18,232,o),
(21,216,o),
(20,216,c)
);
},
{
closed = 1;
nodes = (
(446,0,l),
(446,0,o),
(472,188,o),
(500,375,cs),
(527,563,o),
(557,750,o),
(557,750,c),
(465,750,l),
(465,750,o),
(439,565,o),
(412,378,cs),
(385,190,o),
(354,0,o),
(354,0,c)
);
},
{
closed = 1;
nodes = (
(50,462,o),
(231,467,o),
(346,467,cs),
(352,467,l),
(638,463,l),
(638,463,o),
(644,476,o),
(647,505,cs),
(650,535,o),
(649,547,o),
(649,547,c),
(649,547,o),
(478,542,o),
(363,542,cs),
(356,542,l),
(61,546,l),
(61,546,o),
(54,536,o),
(51,506,cs),
(48,476,o),
(50,462,o),
(50,462,c)
);
}
);
width = 688;
}
);
unicode = 35;
},
{
glyphname = slash;
lastChange = "2021-09-29 08:09:49 +0000";
layers = (
{
layerId = master01;
shapes = (
{
closed = 1;
nodes = (
(152,-79,l),
(152,-79,o),
(238,155,o),
(321,375,cs),
(394,568,o),
(464,750,o),
(464,750,c),
(462,750,o),
(439,752,o),
(417,752,cs),
(394,752,o),
(360,750,o),
(360,750,c),
(361,750,o),
(295,571,o),
(223,379,cs),
(140,158,o),
(48,-79,o),
(48,-79,c)
);
}
);
width = 524;
}
);
unicode = 47;
},
{
glyphname = hyphen;
lastChange = "2021-09-29 08:09:46 +0000";
layers = (
{
layerId = master01;
shapes = (
{
closed = 1;
nodes = (
(57,262,o),
(158,264,o),
(213,264,cs),
(269,264,o),
(371,262,o),
(371,262,c),
(371,262,o),
(373,289,o),
(373,306,cs),
(373,322,o),
(371,348,o),
(371,348,c),
(371,348,o),
(271,346,o),
(213,346,cs),
(158,346,o),
(57,348,o),
(57,348,c),
(57,348,o),
(55,319,o),
(55,306,cs),
(55,290,o),
(57,262,o),
(57,262,c)
);
}
);
width = 428;
}
);
unicode = 45;
},
{
glyphname = underscore;
lastChange = "2021-09-29 08:09:46 +0000";
layers = (
{
layerId = master01;
shapes = (
{
closed = 1;
nodes = (
(30,-156,o),
(191,-154,o),
(298,-154,cs),
(408,-154,o),
(567,-156,o),
(567,-156,c),
(567,-156,o),
(569,-128,o),
(569,-112,cs),
(569,-98,o),
(567,-71,o),
(567,-71,c),
(567,-71,o),
(412,-73,o),
(298,-73,cs),
(191,-73,o),
(30,-71,o),
(30,-71,c),
(30,-71,o),
(28,-100,o),
(28,-112,cs),
(28,-127,o),
(30,-156,o),
(30,-156,c)
);
}
);
width = 600;
}
);
unicode = 95;
},
{
glyphname = parenright;
lastChange = "2021-09-29 08:28:04 +0000";
layers = (
{
layerId = master01;
shapes = (
{
closed = 1;
nodes = (
(369,688,o),
(62,827,o),
(62,827,c),
(42,803,o),
(26,774,o),
(20,745,c),
(88,727,o),
(266,613,o),
(266,301,cs),
(266,-11,o),
(88,-125,o),
(20,-143,c),
(26,-172,o),
(42,-201,o),
(62,-225,c),
(62,-225,o),
(369,-86,o),
(369,301,cs)
);
}
);
width = 419;
}
);
metricRight = O;
unicode = 41;
},
{
glyphname = at;
layers = (
{
layerId = master01;
shapes = (
{
closed = 1;
nodes = (
(593,-179,o),
(666,-113,o),
(666,-113,c),
(668,-87,o),
(641,-52,o),
(620,-47,c),
(620,-47,o),
(545,-105,o),
(444,-105,cs),
(311,-105,o),
(120,-10,o),
(120,265,cs),
(120,436,o),
(218,635,o),
(473,635,cs),
(697,635,o),
(807,478,o),
(807,305,cs),
(807,147,o),
(750,96,o),
(714,96,cs),
(667,96,o),
(657,126,o),
(657,205,cs),
(657,496,l),
(601,496,l),
(567,434,l),
(567,205,ls),
(567,106,o),
(606,35,o),
(710,35,cs),
(786,35,o),
(887,114,o),
(887,308,cs),
(887,529,o),
(725,709,o),
(473,709,cs),
(205,709,o),
(40,514,o),
(40,265,cs),
(40,-42,o),
(236,-179,o),
(444,-179,cs)
);
},
{
closed = 1;
nodes = (
(566,16,o),
(626,132,o),
(626,255,c),
(567,247,l),
(567,160,o),
(503,96,o),
(446,96,cs),
(377,96,o),
(329,158,o),
(329,267,cs),
(329,382,o),
(378,437,o),
(446,437,cs),
(521,437,o),
(567,358,o),
(567,293,c),
(628,301,l),
(628,377,o),
(590,518,o),
(439,518,cs),
(326,518,o),
(231,422,o),
(231,267,cs),
(231,99,o),
(339,16,o),
(438,16,cs)
);
}
);
width = 927;
}
);
unicode = 64;
},
{
glyphname = ampersand;
lastChange = "2021-09-29 07:01:14 +0000";
layers = (
{
layerId = master01;
shapes = (
{
closed = 1;
nodes = (
(706,9,o),
(723,39,o),
(734,73,c),
(691,77,o),
(521,161,o),
(366,326,cs),
(288,409,o),
(229,499,o),
(229,571,cs),
(229,637,o),
(279,690,o),
(350,690,cs),
(398,690,o),
(438,665,o),
(458,630,c),
(486,642,o),
(509,663,o),
(525,691,c),
(487,736,o),
(434,766,o),
(351,766,cs),
(202,766,o),
(124,670,o),
(124,567,cs),
(124,468,o),
(196,362,o),
(303,253,cs),
(429,124,o),
(611,-14,o),
(680,-14,c)
);
},
{
closed = 1;
nodes = (
(562,-14,o),
(663,244,o),
(685,295,c),
(654,311,o),
(619,317,o),
(582,316,c),
(567,274,o),
(505,59,o),
(326,59,cs),
(238,59,o),
(156,111,o),
(156,227,cs),
(156,301,o),
(189,350,o),
(266,370,c),
(228,432,l),
(134,403,o),
(50,337,o),
(50,217,cs),
(50,71,o),
(173,-14,o),
(315,-14,cs)
);
}
);
width = 774;
}
);
unicode = 38;
},
{
glyphname = bar;
lastChange = "2021-09-29 08:32:45 +0000";
layers = (
{
layerId = master01;
shapes = (
{
closed = 1;
nodes = (
(182,-200,l),
(182,-200,o),
(175,-63,o),
(175,135,cs),
(175,465,ls),
(175,666,o),
(185,800,o),
(185,800,c),
(70,800,l),
(70,800,o),
(80,666,o),
(80,465,cs),
(80,135,ls),
(80,-63,o),
(73,-200,o),
(73,-200,c)
);
}
);
width = 255;
}
);
unicode = 124;
},
{
glyphname = dollar;
lastChange = "2021-09-29 08:34:16 +0000";
layers = (
{
layerId = master01;
shapes = (
{
ref = S;
},
{
closed = 1;
nodes = (
(378,-126,l),
(378,-126,o),
(369,11,o),
(369,209,cs),
(369,267,o),
(366,324,o),
(366,382,c),
(366,434,o),
(369,487,o),
(369,539,cs),
(369,740,o),
(381,874,o),
(381,874,c),
(266,874,l),
(266,874,o),
(278,740,o),
(278,539,cs),
(278,497,o),
(279,454,o),
(279,412,c),
(279,344,o),
(278,277,o),
(278,209,cs),
(278,11,o),
(269,-126,o),
(269,-126,c)
);
}
);
width = 639;
}
);
metricLeft = S;
metricRight = S;
unicode = 36;
},
{
glyphname = arrowright;
lastChange = "2021-09-29 08:09:49 +0000";
layers = (
{
layerId = master01;
shapes = (
{
closed = 1;
nodes = (
(711,320,l),
(711,320,o),
(648,383,o),
(629,404,cs),
(414,631,l),
(414,631,o),
(396,620,o),
(372,596,cs),
(348,571,o),
(333,549,o),
(333,549,c),
(333,549,o),
(508,393,o),
(566,340,cs),
(651,258,l)
);
},
{
closed = 1;
nodes = (
(450,276,ls),
(488,277,o),
(599,278,o),
(599,278,c),
(599,364,l),
(599,364,o),
(487,365,o),
(449,366,cs),
(351,368,o),
(55,378,o),
(55,378,c),
(55,378,o),
(50,357,o),
(50,323,cs),
(50,288,o),
(57,263,o),
(57,263,c)
);
},
{
closed = 1;
nodes = (
(414,8,o),
(575,179,o),
(629,235,cs),
(648,256,o),
(711,319,o),
(711,319,c),
(651,381,l),
(566,300,ls),
(508,247,o),
(333,90,o),
(333,90,c),
(333,90,o),
(348,68,o),
(372,44,cs),
(396,19,o),
(414,8,o),
(414,8,c)
);
}
);
width = 761;
}
);
unicode = 8594;
},
{
glyphname = leftRightArrow;
lastChange = "2021-09-29 08:09:49 +0000";
layers = (
{
layerId = master01;
shapes = (
{
closed = 1;
nodes = (
(1109,320,l),
(1022,408,ls),
(966,467,o),
(798,647,o),
(798,647,c),
(798,647,o),
(780,635,o),
(755,608,cs),
(729,583,o),
(713,560,o),
(713,560,c),
(713,560,o),
(897,396,o),
(957,340,cs),
(1046,255,l)
);
},
{
closed = 1;
nodes = (
(361,-8,o),
(379,4,o),
(404,31,cs),
(430,56,o),
(446,79,o),
(446,79,c),
(446,79,o),
(263,243,o),
(202,299,cs),
(113,384,l),
(50,319,l),
(50,319,o),
(115,254,o),
(137,231,cs),
(193,172,o),
(361,-8,o),
(361,-8,c)
);
},
{
closed = 1;
nodes = (
(202,340,ls),
(263,396,o),
(446,560,o),
(446,560,c),
(446,560,o),
(430,583,o),
(404,608,cs),
(379,635,o),
(361,647,o),
(361,647,c),
(361,647,o),
(193,467,o),
(137,408,cs),
(50,320,l),
(113,255,l)
);
},
{
closed = 1;
nodes = (
(991,274,l),
(991,364,l),
(991,364,o),
(641,363,o),
(542,363,cs),
(168,363,l),
(168,273,l)
);
},
{
closed = 1;
nodes = (
(798,-8,o),
(966,172,o),
(1022,231,cs),
(1044,254,o),
(1109,319,o),
(1109,319,c),
(1046,384,l),
(957,299,ls),
(897,243,o),
(713,79,o),
(713,79,c),
(713,79,o),
(729,56,o),
(755,31,cs),
(780,4,o),
(798,-8,o),
(798,-8,c)
);
}
);
width = 1159;
}
);
unicode = 8596;
},
{
glyphname = upDownArrow;
lastChange = "2021-09-29 08:09:49 +0000";
layers = (
{
layerId = master01;
shapes = (
{
closed = 1;
nodes = (
(618,473,o),
(641,489,o),
(666,515,cs),
(693,540,o),
(705,558,o),
(705,558,c),
(705,558,o),
(525,726,o),
(466,782,cs),
(378,869,l),
(313,806,l),
(398,717,ls),
(454,656,o),
(618,473,o),
(618,473,c)
);
},
{
closed = 1;
nodes = (
(442,-127,l),
(357,-38,ls),
(301,22,o),
(137,206,o),
(137,206,c),
(137,206,o),
(114,190,o),
(89,164,cs),
(62,139,o),
(50,121,o),
(50,121,c),
(50,121,o),
(230,-47,o),
(289,-103,cs),
(312,-125,o),
(377,-190,o),
(377,-190,c)
);
},
{
closed = 1;
nodes = (
(466,-103,ls),
(525,-47,o),
(705,121,o),
(705,121,c),
(705,121,o),
(693,139,o),
(666,164,cs),
(641,190,o),
(618,206,o),
(618,206,c),
(618,206,o),
(454,22,o),
(398,-38,cs),
(313,-127,l),
(378,-190,l)
);
},
{
closed = 1;
nodes = (
(422,-72,l),
(422,-72,o),
(421,278,o),
(421,377,cs),
(421,751,l),
(331,751,l),
(330,369,l),
(332,-72,l)
);
},
{
closed = 1;
nodes = (
(137,473,o),
(301,656,o),
(357,717,cs),
(442,806,l),
(377,869,l),
(377,869,o),
(312,804,o),
(289,782,cs),
(230,726,o),
(50,558,o),
(50,558,c),
(50,558,o),
(62,540,o),
(89,515,cs),
(114,489,o),
(137,473,o),
(137,473,c)
);
}
);
width = 755;
}
);
unicode = 8597;
},
{
glyphname = dieresiscomb;
layers = (
{
anchors = (
{
name = _top;
pos = (267,586);
}
);
layerId = master01;
shapes = (
{
closed = 1;
nodes = (
(437,632,o),
(464,660,o),
(464,694,cs),
(464,728,o),
(437,754,o),
(403,754,cs),
(369,754,o),
(342,728,o),
(342,694,cs),
(342,660,o),
(369,632,o),
(403,632,cs)
);
},
{
closed = 1;
nodes = (
(165,632,o),
(192,660,o),
(192,694,cs),
(192,728,o),
(165,754,o),
(131,754,cs),
(97,754,o),
(70,728,o),
(70,694,cs),
(70,660,o),
(97,632,o),
(131,632,cs)
);
}
);
width = 534;
}
);
unicode = 776;
},
{
glyphname = acutecomb;
lastChange = "2021-09-29 06:50:00 +0000";
layers = (
{
anchors = (
{
name = _top;
pos = (53,550);
}
);
layerId = master01;
shapes = (
{
closed = 1;
nodes = (
(284,724,l),
(290,762,o),
(261,806,o),
(225,806,c),
(28,660,l),
(30,642,o),
(39,622,o),
(53,614,c)
);
}
);
width = 310;
}
);
unicode = 769;
},
{
glyphname = tildecomb;
lastChange = "2021-09-29 08:06:58 +0000";
layers = (
{
anchors = (
{
name = _top;
pos = (205,566);
}
);
background = {
shapes = (
{
closed = 1;
nodes = (
(88,652,o),
(103,686,o),
(139,682,cs),
(195,676,o),
(198,626,o),
(269,618,cs),
(356,609,o),
(391,719,o),
(391,719,c),
(385,733,o),
(357,752,o),
(339,755,c),
(331,736,o),
(328,700,o),
(293,700,cs),
(236,700,o),
(234,756,o),
(157,764,cs),
(66,773,o),
(27,662,o),
(27,662,c),
(32,647,o),
(65,630,o),
(80,628,c)
);
}
);
};
layerId = master01;
shapes = (
{
ref = tilde;
}
);
width = 420;
}
);
unicode = 771;
},
{
glyphname = dieresis;
layers = (
{
anchors = (
{
name = _top;
pos = (267,586);
}
);
layerId = master01;
shapes = (
{
closed = 1;
nodes = (
(437,632,o),
(464,660,o),
(464,694,cs),
(464,728,o),
(437,754,o),
(403,754,cs),
(369,754,o),
(342,728,o),
(342,694,cs),
(342,660,o),
(369,632,o),
(403,632,cs)
);
},
{
closed = 1;
nodes = (
(165,632,o),
(192,660,o),
(192,694,cs),
(192,728,o),
(165,754,o),
(131,754,cs),
(97,754,o),
(70,728,o),
(70,694,cs),
(70,660,o),
(97,632,o),
(131,632,cs)
);
}
);
width = 534;
}
);
unicode = 168;
},
{
glyphname = acute;
layers = (
{
anchors = (
{
name = _top;
pos = (52,569);
}
);
layerId = master01;
shapes = (
{
closed = 1;
nodes = (
(284,724,l),
(290,762,o),
(261,806,o),
(225,806,c),
(28,660,l),
(30,642,o),
(39,622,o),
(53,614,c)
);
}
);
width = 310;
}
);
unicode = 180;
},
{
glyphname = tilde;
lastChange = "2021-09-29 08:09:46 +0000";
layers = (
{
anchors = (
{
name = _top;
pos = (205,566);
}
);
background = {
shapes = (
{
closed = 1;
nodes = (
(340,730,o),
(321,693,o),
(279,698,cs),
(223,704,o),
(220,755,o),
(149,763,cs),
(55,773,o),
(15,688,o),
(7,673,c),
(26,649,o),
(50,633,o),
(68,630,c),
(73,649,o),
(85,684,o),
(125,684,cs),
(182,684,o),
(184,627,o),
(261,619,cs),
(359,609,o),
(392,686,o),
(411,711,c),
(392,735,o),
(363,752,o),
(348,754,c)
);
}
);
};
layerId = master01;
shapes = (
{
closed = 1;
nodes = (
(344,611,o),
(389,667,o),
(411,709,c),
(392,733,o),
(368,749,o),
(350,752,c),
(345,733,o),
(334,698,o),
(291,698,cs),
(237,698,o),
(231,754,o),
(157,763,cs),
(66,774,o),
(17,700,o),
(7,671,c),
(26,647,o),
(53,632,o),
(68,630,c),
(72,654,o),
(92,689,o),
(134,684,cs),
(188,679,o),
(200,626,o),
(269,619,cs)
);
}
);
width = 420;
}
);
unicode = 732;
},
{
glyphname = Auditorio;
lastChange = "2021-09-29 08:09:55 +0000";
layers = (
{
layerId = master01;
shapes = (
{
closed = 1;
nodes = (
(312,-57,o),
(407,-54,o),
(413,40,c),
(426,40,o),
(442,59,o),
(442,107,cs),
(442,135,o),
(432,153,o),
(419,153,c),
(410,228,o),
(340,276,o),
(264,276,cs),
(188,276,o),
(119,228,o),
(110,153,c),
(97,153,o),
(87,135,o),
(87,107,cs),
(87,59,o),
(103,40,o),
(116,40,c),
(122,-54,o),
(216,-57,o),
(264,-57,cs)
);
},
{
closed = 1;
nodes = (
(449,-260,ls),
(460,-260,o),
(469,-250,o),
(469,-240,cs),
(469,-186,ls),
(469,-180,o),
(466,-174,o),
(462,-171,cs),
(458,-168,o),
(394,-116,o),
(264,-116,cs),
(131,-116,o),
(70,-169,o),
(67,-171,cs),
(63,-175,o),
(60,-181,o),
(60,-186,cs),
(60,-240,ls),
(60,-251,o),
(70,-260,o),
(80,-260,cs)
);
},
{
closed = 1;
nodes = (
(100,-196,l),
(118,-184,o),
(170,-156,o),
(264,-156,cs),
(356,-156,o),
(410,-184,o),
(429,-196,c),
(429,-220,l),
(403,-220,o),
(346,-220,o),
(264,-220,cs),
(100,-220,l)
);
},
{
closed = 1;
nodes = (
(208,-17,o),
(156,-13,o),
(156,49,cs),
(156,64,o),
(127,65,o),
(127,103,cs),
(127,111,o),
(130,123,o),
(130,123,c),
(140,123,o),
(149,129,o),
(149,147,cs),
(149,192,o),
(200,236,o),
(264,236,cs),
(328,236,o),
(380,192,o),
(380,147,cs),
(380,129,o),
(389,123,o),
(399,123,c),
(399,123,o),
(402,111,o),
(402,103,cs),
(402,65,o),
(373,64,o),
(373,49,cs),
(373,-13,o),
(320,-17,o),
(264,-17,cs)
);
},
{
closed = 1;
nodes = (
(963,-260,ls),
(974,-260,o),
(982,-250,o),
(982,-240,cs),
(982,-186,ls),
(982,-180,o),
(980,-174,o),
(976,-171,cs),
(972,-168,o),
(908,-116,o),
(778,-116,cs),
(645,-116,o),
(583,-169,o),
(580,-171,cs),
(576,-175,o),
(574,-181,o),
(574,-186,cs),
(574,-240,ls),
(574,-251,o),
(583,-260,o),
(593,-260,cs)
);
},
{
closed = 1;
nodes = (
(614,-196,l),
(632,-184,o),
(684,-156,o),
(778,-156,cs),
(870,-156,o),
(923,-184,o),
(942,-196,c),
(942,-220,l),
(916,-220,o),
(860,-220,o),
(778,-220,cs),
(614,-220,l)
);
},
{
closed = 1;
nodes = (
(826,-57,o),
(920,-54,o),
(926,40,c),
(939,40,o),
(955,59,o),
(955,107,cs),
(955,135,o),
(946,153,o),
(933,153,c),
(924,228,o),
(854,276,o),
(778,276,cs),
(702,276,o),
(632,228,o),
(623,153,c),
(610,153,o),
(601,135,o),
(601,107,cs),
(601,59,o),
(617,40,o),
(630,40,c),
(636,-54,o),
(730,-57,o),
(778,-57,cs)
);
},
{
closed = 1;
nodes = (
(722,-17,o),
(669,-13,o),
(669,49,cs),
(669,64,o),
(641,65,o),
(641,103,cs),
(641,111,o),
(644,123,o),
(644,123,c),
(654,123,o),
(662,129,o),
(662,147,cs),
(662,192,o),
(714,236,o),
(778,236,cs),
(842,236,o),
(894,192,o),
(894,147,cs),
(894,129,o),
(902,123,o),
(912,123,c),
(912,123,o),
(915,111,o),
(915,103,cs),
(915,65,o),
(887,64,o),
(887,49,cs),
(887,-13,o),
(834,-17,o),
(778,-17,cs)
);
},
{
closed = 1;
nodes = (
(709,354,ls),
(720,354,o),
(728,364,o),
(728,374,cs),
(728,428,ls),
(728,434,o),
(726,440,o),
(722,443,cs),
(718,446,o),
(654,498,o),
(524,498,cs),
(391,498,o),
(329,445,o),
(326,443,cs),
(322,439,o),
(320,433,o),
(320,428,cs),
(320,374,ls),
(320,363,o),
(329,354,o),
(339,354,cs)
);
},
{
closed = 1;
nodes = (
(360,418,l),
(378,430,o),
(430,458,o),
(524,458,cs),
(616,458,o),
(669,430,o),
(688,418,c),
(688,394,l),
(662,394,o),
(606,394,o),
(524,394,cs),
(360,394,l)
);
},
{
closed = 1;
nodes = (
(510,437,l),
(494,487,l),
(554,487,l),
(538,437,l),
(558,360,l),
(490,360,l)
);
},
{
closed = 1;
nodes = (
(572,557,o),
(666,560,o),
(672,654,c),
(685,654,o),
(701,673,o),
(701,721,cs),
(701,749,o),
(692,767,o),
(679,767,c),
(670,842,o),
(600,890,o),
(524,890,cs),
(448,890,o),
(378,842,o),
(369,767,c),
(356,767,o),
(347,749,o),
(347,721,cs),
(347,673,o),
(363,654,o),
(376,654,c),
(382,560,o),
(476,557,o),
(524,557,cs)
);
},
{
closed = 1;
nodes = (
(468,597,o),
(415,601,o),
(415,663,cs),
(415,678,o),
(387,679,o),
(387,717,cs),
(387,725,o),
(390,737,o),
(390,737,c),
(400,737,o),
(408,743,o),
(408,761,cs),
(408,806,o),
(460,850,o),
(524,850,cs),
(588,850,o),
(640,806,o),
(640,761,cs),
(640,743,o),
(648,737,o),
(658,737,c),
(658,737,o),
(661,725,o),
(661,717,cs),
(661,679,o),
(633,678,o),
(633,663,cs),
(633,601,o),
(580,597,o),
(524,597,cs)
);
}
);
width = 1042;
}
);
},
{
glyphname = Bibliotec;
lastChange = "2021-09-29 08:09:55 +0000";
layers = (
{
layerId = master01;
shapes = (
{
closed = 1;
nodes = (
(585,-123,o),
(598,-117,o),
(601,-105,cs),
(774,763,ls),
(776,772,o),
(770,785,o),
(759,787,cs),
(588,821,ls),
(580,823,o),
(567,817,o),
(564,805,cs),
(391,-63,ls),
(389,-72,o),
(395,-85,o),
(406,-87,cs),
(577,-121,ls)
);
},
{
closed = 1;
nodes = (
(1084,-184,ls),
(1095,-184,o),
(1104,-175,o),
(1104,-164,cs),
(1104,-153,o),
(1095,-144,o),
(1084,-144,cs),
(80,-144,ls),
(69,-144,o),
(60,-153,o),
(60,-164,cs),
(60,-175,o),
(69,-184,o),
(80,-184,cs)
);
},
{
closed = 1;
nodes = (
(327,-114,ls),
(336,-114,o),
(347,-106,o),
(347,-94,cs),
(347,792,ls),
(347,801,o),
(339,812,o),
(327,812,cs),
(153,812,ls),
(144,812,o),
(133,804,o),
(133,792,cs),
(133,-94,ls),
(133,-103,o),
(141,-114,o),
(153,-114,cs)
);
},
{
closed = 1;
nodes = (
(173,772,l),
(307,772,l),
(307,-74,l),
(173,-74,l)
);
},
{
closed = 1;
nodes = (
(633,502,l),
(594,510,l),
(494,12,l),
(534,4,l)
);
},
{
closed = 1;
nodes = (
(260,472,l),
(260,722,l),
(220,722,l),
(220,472,l)
);
},
{
closed = 1;
nodes = (
(434,-52,l),
(600,778,l),
(731,752,l),
(565,-78,l)
);
},
{
closed = 1;
nodes = (
(1017,-114,ls),
(1026,-114,o),
(1037,-106,o),
(1037,-94,cs),
(1037,792,ls),
(1037,801,o),
(1029,812,o),
(1017,812,cs),
(843,812,ls),
(834,812,o),
(823,804,o),
(823,792,cs),
(823,-94,ls),
(823,-103,o),
(831,-114,o),
(843,-114,cs)
);
},
{
closed = 1;
nodes = (
(863,772,l),
(997,772,l),
(997,-74,l),
(863,-74,l)
);
},
{
closed = 1;
nodes = (
(950,242,l),
(950,732,l),
(910,732,l),
(910,242,l)
);
}
);
width = 1164;
}
);
},
{
glyphname = Cooperativa;
lastChange = "2021-09-29 08:09:55 +0000";
layers = (
{
layerId = master01;
shapes = (
{
closed = 1;
nodes = (
(924,-200,ls),
(932,-200,o),
(944,-192,o),
(944,-180,cs),
(944,582,ls),
(944,597,o),
(936,608,o),
(924,608,cs),
(627,608,l),
(600,751,ls),
(599,757,o),
(594,763,o),
(588,765,cs),
(511,797,ls),
(501,802,o),
(489,797,o),
(485,787,cs),
(481,777,o),
(485,765,o),
(496,761,cs),
(563,733,l),
(587,608,l),
(492,608,ls),
(479,608,o),
(472,600,o),
(472,588,cs),
(472,366,ls),
(472,356,o),
(480,347,o),
(492,347,cs),
(502,347,o),
(512,357,o),
(512,367,cs),
(512,568,l),
(904,568,l),
(904,-160,l),
(549,-160,ls),
(539,-160,o),
(529,-167,o),
(529,-180,cs),
(529,-193,o),
(538,-200,o),
(548,-200,cs)
);
},
{
closed = 1;
nodes = (
(314,-200,o),
(310,-189,o),
(340,-189,cs),
(370,-189,o),
(366,-200,o),
(422,-200,cs),
(518,-200,o),
(620,-31,o),
(620,94,cs),
(620,217,o),
(566,319,o),
(468,319,cs),
(397,319,o),
(378,273,o),
(340,273,cs),
(302,273,o),
(283,319,o),
(212,319,cs),
(114,319,o),
(60,217,o),
(60,94,cs),
(60,-31,o),
(162,-200,o),
(258,-200,cs)
);
},
{
closed = 1;
nodes = (
(202,-160,o),
(100,-21,o),
(100,94,cs),
(100,211,o),
(150,279,o),
(212,279,cs),
(284,279,o),
(283,233,o),
(340,233,cs),
(397,233,o),
(396,279,o),
(468,279,cs),
(530,279,o),
(580,211,o),
(580,94,cs),
(580,-21,o),
(478,-160,o),
(422,-160,cs),
(376,-160,o),
(386,-149,o),
(340,-149,cs),
(294,-149,o),
(304,-160,o),
(258,-160,cs)
);
},
{
closed = 1;
nodes = (
(393,157,o),
(422,181,o),
(425,183,cs),
(434,191,o),
(434,203,o),
(427,211,cs),
(421,219,o),
(409,220,o),
(400,214,cs),
(398,213,o),
(378,197,o),
(340,197,cs),
(300,197,o),
(278,209,o),
(275,211,cs),
(267,215,o),
(255,213,o),
(249,203,cs),
(243,193,o),
(247,182,o),
(255,176,cs),
(259,173,o),
(289,157,o),
(340,157,cs)
);
},
{
closed = 1;
nodes = (
(357,246,o),
(366,256,o),
(365,267,cs),
(363,327,o),
(396,388,o),
(422,397,cs),
(432,401,o),
(438,412,o),
(434,423,cs),
(431,433,o),
(419,438,o),
(409,435,cs),
(354,416,o),
(323,333,o),
(325,265,cs),
(326,254,o),
(335,246,o),
(346,246,cs)
);
}
);
width = 1004;
}
);
},
{
glyphname = Cubrebocas;
lastChange = "2021-09-29 08:09:55 +0000";
layers = (
{
layerId = master01;
shapes = (
{
closed = 1;
nodes = (
(173,255,o),
(182,264,o),
(182,275,cs),
(182,286,o),
(176,295,o),
(156,295,cs),
(133,295,o),
(118,343,o),
(118,408,cs),
(118,460,o),
(135,490,o),
(156,490,cs),
(175,490,o),
(182,499,o),
(182,518,c),
(176,539,o),
(173,560,o),
(173,580,cs),
(173,760,o),
(316,821,o),
(490,821,cs),
(664,821,o),
(807,760,o),
(807,580,cs),
(807,560,o),
(804,539,o),
(798,518,c),
(798,499,o),
(805,490,o),
(824,490,cs),
(845,490,o),
(862,460,o),
(862,408,cs),
(862,343,o),
(847,295,o),
(824,295,cs),
(804,295,o),
(798,286,o),
(798,275,cs),
(798,264,o),
(807,255,o),
(818,255,cs),
(873,255,o),
(903,326,o),
(903,411,cs),
(903,461,o),
(887,509,o),
(843,525,c),
(843,525,o),
(851,538,o),
(851,588,cs),
(851,714,o),
(780,861,o),
(490,861,cs),
(200,861,o),
(129,714,o),
(129,588,cs),
(129,538,o),
(137,525,o),
(137,525,c),
(93,509,o),
(77,461,o),
(77,411,cs),
(77,326,o),
(107,255,o),
(162,255,cs)
);
},
{
closed = 1;
nodes = (
(900,-200,ls),
(912,-200,o),
(920,-189,o),
(920,-180,cs),
(920,-76,ls),
(920,-69,o),
(916,-63,o),
(912,-60,cs),
(909,-58,o),
(757,50,o),
(490,50,cs),
(222,50,o),
(70,-58,o),
(68,-60,cs),
(63,-64,o),
(60,-70,o),
(60,-76,cs),
(60,-180,ls),
(60,-192,o),
(71,-200,o),
(80,-200,cs)
);
},
{
closed = 1;
nodes = (
(100,-87,l),
(134,-66,o),
(271,10,o),
(490,10,cs),
(708,10,o),
(845,-65,o),
(880,-87,c),
(880,-160,l),
(100,-160,l)
);
},
{
closed = 1;
nodes = (
(689,89,o),
(766,228,o),
(768,232,cs),
(769,234,o),
(770,238,o),
(770,241,cs),
(770,319,ls),
(770,324,o),
(768,330,o),
(763,334,cs),
(704,387,o),
(568,415,o),
(490,415,cs),
(412,415,o),
(276,387,o),
(217,334,cs),
(213,330,o),
(210,325,o),
(210,319,cs),
(210,241,ls),
(210,238,o),
(211,234,o),
(212,231,c),
(214,229,o),
(290,89,o),
(490,89,cs)
);
},
{
closed = 1;
nodes = (
(332,129,o),
(263,226,o),
(250,247,c),
(250,310,l),
(301,348,o),
(423,375,o),
(490,375,cs),
(557,375,o),
(680,347,o),
(730,310,c),
(730,247,l),
(716,225,o),
(647,129,o),
(490,129,cs)
);
}
);
width = 980;
}
);
},
{
glyphname = Hombre;
lastChange = "2021-09-29 08:09:55 +0000";
layers = (
{
background = {
shapes = (
{
closed = 1;
nodes = (
(206,-209,o),
(246,-214,o),
(267,-193,cs),
(271,-189,o),
(273,-185,o),
(273,-180,cs),
(283,0,l),
(289,144,l),
(294,0,l),
(304,-180,ls),
(304,-185,o),
(306,-189,o),
(310,-193,cs),
(331,-214,o),
(372,-209,o),
(392,-195,cs),
(397,-192,o),
(400,-186,o),
(400,-179,cs),
(395,245,l),
(400,404,l),
(403,404,l),
(407,358,o),
(417,251,o),
(421,209,cs),
(422,202,o),
(425,194,o),
(430,188,cs),
(440,176,o),
(454,173,o),
(467,173,cs),
(485,173,o),
(510,184,o),
(510,211,cs),
(510,257,o),
(517,453,o),
(517,486,cs),
(517,524,o),
(496,570,o),
(442,570,cs),
(289,570,l),
(288,570,l),
(135,570,ls),
(81,570,o),
(60,524,o),
(60,486,cs),
(60,453,o),
(67,257,o),
(67,211,cs),
(67,184,o),
(92,173,o),
(110,173,cs),
(123,173,o),
(137,176,o),
(147,188,cs),
(152,194,o),
(155,202,o),
(156,209,cs),
(160,251,o),
(170,358,o),
(174,404,c),
(177,404,l),
(182,245,l),
(177,-179,ls),
(177,-186,o),
(181,-192,o),
(186,-195,cs)
);
},
{
closed = 1;
nodes = (
(226,-166,o),
(217,-165,c),
(222,247,l),
(216,425,ls),
(216,435,o),
(207,444,o),
(196,444,cs),
(156,444,ls),
(146,444,o),
(137,436,o),
(136,426,cs),
(121,269,o),
(116,214,l),
(112,213,o),
(107,213,l),
(107,264,o),
(100,456,o),
(100,486,cs),
(100,506,o),
(112,530,o),
(135,530,c),
(442,530,l),
(465,530,o),
(477,506,o),
(477,486,cs),
(477,456,o),
(470,264,o),
(470,213,c),
(468,213,o),
(461,214,c),
(456,269,o),
(441,426,cs),
(440,436,o),
(431,444,o),
(421,444,cs),
(381,444,ls),
(370,444,o),
(361,435,o),
(361,425,cs),
(355,247,l),
(360,-165,l),
(354,-166,o),
(344,-166,l),
(317,233,ls),
(316,244,o),
(307,252,o),
(297,252,c),
(280,252,l),
(270,252,o),
(261,244,o),
(260,233,cs),
(234,-166,l)
);
},
{
closed = 1;
nodes = (
(346,622,o),
(392,667,o),
(392,724,cs),
(392,781,o),
(346,826,o),
(289,826,cs),
(232,826,o),
(187,781,o),
(187,724,cs),
(187,667,o),
(232,622,o),
(289,622,cs)
);
},
{
closed = 1;
nodes = (
(254,662,o),
(227,689,o),
(227,724,cs),
(227,759,o),
(254,786,o),
(289,786,cs),
(324,786,o),
(352,759,o),
(352,724,cs),
(352,689,o),
(324,662,o),
(289,662,cs)
);
}
);
};
layerId = master01;
shapes = (
{
closed = 1;
nodes = (
(206,-209,o),
(246,-214,o),
(267,-193,cs),
(271,-189,o),
(273,-185,o),
(273,-180,cs),
(283,0,l),
(289,144,l),
(294,0,l),
(304,-180,ls),
(304,-185,o),
(306,-189,o),
(310,-193,cs),
(331,-214,o),
(372,-209,o),
(392,-195,cs),
(397,-192,o),
(400,-186,o),
(400,-179,cs),
(395,245,l),
(400,404,l),
(403,404,l),
(421,209,ls),
(422,202,o),
(425,194,o),
(430,188,cs),
(440,176,o),
(454,173,o),
(467,173,cs),
(485,173,o),
(510,184,o),
(510,211,cs),
(510,257,o),
(517,453,o),
(517,486,cs),
(517,524,o),
(496,570,o),
(442,570,cs),
(135,570,ls),
(81,570,o),
(60,524,o),
(60,486,cs),
(60,453,o),
(67,257,o),
(67,211,cs),
(67,184,o),
(92,173,o),
(110,173,cs),
(123,173,o),
(137,176,o),
(147,188,cs),
(152,194,o),
(155,202,o),
(156,209,cs),
(174,404,l),
(177,404,l),
(182,245,l),
(177,-179,ls),
(177,-186,o),
(181,-192,o),
(186,-195,cs)
);
},
{
closed = 1;
nodes = (
(217,-165,l),
(222,247,l),
(216,425,ls),
(216,435,o),
(207,444,o),
(196,444,cs),
(156,444,ls),
(146,444,o),
(137,436,o),
(136,426,cs),
(116,214,l),
(107,213,l),
(107,264,o),
(100,456,o),
(100,486,cs),
(100,506,o),
(112,530,o),
(135,530,cs),
(442,530,ls),
(465,530,o),
(477,506,o),
(477,486,cs),
(477,456,o),
(470,264,o),
(470,213,c),
(461,214,l),
(441,426,ls),
(440,436,o),
(431,444,o),
(421,444,cs),
(381,444,ls),
(370,444,o),
(361,435,o),
(361,425,cs),
(355,247,l),
(360,-165,l),
(344,-166,l),
(317,233,ls),
(316,243,o),
(307,252,o),
(297,252,cs),
(280,252,ls),
(270,252,o),
(261,244,o),
(260,233,cs),
(234,-166,l)
);
},
{
closed = 1;
nodes = (
(346,622,o),
(392,667,o),
(392,724,cs),
(392,781,o),
(346,826,o),
(289,826,cs),
(232,826,o),
(187,781,o),
(187,724,cs),
(187,667,o),
(232,622,o),
(289,622,cs)
);
},
{
closed = 1;
nodes = (
(254,662,o),
(227,689,o),
(227,724,cs),
(227,759,o),
(254,786,o),
(289,786,cs),
(324,786,o),
(352,759,o),
(352,724,cs),
(352,689,o),
(324,662,o),
(289,662,cs)
);
}
);
width = 577;
}
);
},
{
glyphname = Laboratorio;
lastChange = "2021-09-29 08:09:55 +0000";
layers = (
{
layerId = master01;
shapes = (
{
closed = 1;
nodes = (
(640,0,ls),
(642,0,o),
(646,1,o),
(648,2,cs),
(658,7,o),
(662,19,o),
(658,29,cs),
(452,497,l),
(452,770,ls),
(452,781,o),
(443,790,o),
(432,790,cs),
(421,790,o),
(412,781,o),
(412,770,cs),
(412,492,ls),
(412,489,o),
(413,486,o),
(414,483,cs),
(607,40,l),
(113,40,l),
(306,483,ls),
(307,486,o),
(308,489,o),
(308,492,cs),
(308,770,ls),
(308,781,o),
(299,790,o),
(288,790,cs),
(277,790,o),
(268,781,o),
(268,770,cs),
(268,497,l),
(62,29,ls),
(58,19,o),
(61,6,o),
(72,2,cs),
(74,1,o),
(77,0,o),
(80,0,cs)
);
},
{
closed = 1;
nodes = (
(500,218,o),
(535,268,o),
(537,271,cs),
(544,280,o),
(540,292,o),
(532,298,cs),
(524,304,o),
(512,303,o),
(505,294,cs),
(503,292,o),
(477,258,o),
(428,258,cs),
(383,258,o),
(350,308,o),
(272,308,cs),
(197,308,o),
(161,249,o),
(159,246,cs),
(154,238,o),
(156,225,o),
(166,219,cs),
(176,213,o),
(188,217,o),
(193,225,cs),
(196,229,o),
(223,268,o),
(272,268,cs),
(320,268,o),
(351,218,o),
(428,218,cs)
);
},
{
closed = 1;
nodes = (
(482,760,ls),
(492,760,o),
(502,769,o),
(502,780,cs),
(502,791,o),
(492,800,o),
(482,800,cs),
(238,800,ls),
(227,800,o),
(218,791,o),
(218,780,cs),
(218,769,o),
(227,760,o),
(238,760,cs)
);
}
);
width = 720;
}
);
},
{
glyphname = Lavar;
lastChange = "2021-09-29 08:09:55 +0000";
layers = (
{
layerId = master01;
shapes = (
{
closed = 1;
nodes = (
(657,-144,ls),
(679,-144,o),
(718,-122,o),
(718,-88,cs),
(718,-83,o),
(717,-78,o),
(716,-74,c),
(737,-74,ls),
(771,-74,o),
(798,-52,o),
(798,-18,cs),
(798,16,o),
(771,35,o),
(740,36,c),
(741,41,o),
(742,46,o),
(742,52,cs),
(742,87,o),
(714,106,o),
(682,106,cs),
(386,106,ls),
(375,106,o),
(366,97,o),
(366,86,cs),
(366,75,o),
(375,66,o),
(386,66,cs),
(682,66,ls),
(696,66,o),
(702,61,o),
(702,52,cs),
(702,42,o),
(695,36,o),
(681,36,cs),
(495,36,ls),
(484,36,o),
(475,27,o),
(475,16,cs),
(475,5,o),
(484,-4,o),
(495,-4,cs),
(738,-4,ls),
(752,-4,o),
(758,-9,o),
(758,-18,cs),
(758,-28,o),
(751,-34,o),
(737,-34,cs),
(495,-34,ls),
(484,-34,o),
(475,-43,o),
(475,-54,cs),
(475,-65,o),
(484,-74,o),
(495,-74,cs),
(658,-74,ls),
(672,-74,o),
(678,-79,o),
(678,-88,cs),
(678,-98,o),
(666,-104,o),
(657,-104,cs),
(342,-104,ls),
(327,-104,o),
(297,-57,o),
(246,-57,cs),
(105,-57,ls),
(94,-57,o),
(85,-66,o),
(85,-77,cs),
(85,-88,o),
(94,-97,o),
(105,-97,cs),
(246,-97,ls),
(265,-97,o),
(293,-144,o),
(342,-144,cs)
);
},
{
closed = 1;
nodes = (
(239,66,ls),
(292,66,o),
(307,160,o),
(347,160,cs),
(378,160,o),
(404,151,o),
(447,151,cs),
(477,151,o),
(506,157,o),
(525,163,cs),
(535,166,o),
(541,178,o),
(538,188,cs),
(535,198,o),
(523,204,o),
(513,201,cs),
(499,196,o),
(471,191,o),
(447,191,cs),
(411,191,o),
(386,200,o),
(347,200,cs),
(292,200,o),
(269,106,o),
(237,106,cs),
(95,106,ls),
(84,106,o),
(75,97,o),
(75,86,cs),
(75,75,o),
(84,66,o),
(95,66,cs)
);
},
{
closed = 1;
nodes = (
(302,225,o),
(416,230,o),
(430,338,cs),
(431,349,o),
(424,360,o),
(413,361,cs),
(402,362,o),
(391,355,o),
(390,344,cs),
(381,272,o),
(304,265,o),
(298,265,cs),
(289,264,o),
(279,255,o),
(280,244,cs),
(281,233,o),
(291,225,o),
(300,225,cs)
);
},
{
closed = 1;
nodes = (
(265,327,o),
(285,414,o),
(340,414,cs),
(381,414,o),
(443,373,o),
(531,380,cs),
(542,381,o),
(551,390,o),
(550,401,cs),
(549,412,o),
(540,421,o),
(529,420,cs),
(455,415,o),
(401,454,o),
(340,454,cs),
(276,454,o),
(231,367,o),
(212,367,cs),
(175,367,o),
(88,402,o),
(88,402,c),
(78,406,o),
(65,401,o),
(61,391,cs),
(57,381,o),
(62,368,o),
(72,364,c),
(73,364,o),
(160,327,o),
(212,327,cs)
);
},
{
closed = 1;
nodes = (
(623,190,o),
(632,199,o),
(632,210,cs),
(632,252,ls),
(632,263,o),
(623,272,o),
(612,272,cs),
(601,272,o),
(592,263,o),
(592,252,cs),
(592,210,ls),
(592,199,o),
(601,190,o),
(612,190,cs)
);
},
{
closed = 1;
nodes = (
(699,136,o),
(708,145,o),
(708,156,cs),
(708,380,ls),
(708,391,o),
(699,400,o),
(688,400,cs),
(677,400,o),
(668,391,o),
(668,380,cs),
(668,156,ls),
(668,145,o),
(677,136,o),
(688,136,cs)
);
},
{
closed = 1;
nodes = (
(780,171,o),
(789,180,o),
(789,191,cs),
(789,233,ls),
(789,244,o),
(780,253,o),
(769,253,cs),
(758,253,o),
(749,244,o),
(749,233,cs),
(749,191,ls),
(749,180,o),
(758,171,o),
(769,171,cs)
);
},
{
closed = 1;
nodes = (
(623,300,o),
(632,311,o),
(632,320,cs),
(632,536,ls),
(632,547,o),
(623,556,o),
(612,556,cs),
(601,556,o),
(592,547,o),
(592,536,cs),
(592,320,ls),
(592,311,o),
(601,300,o),
(612,300,cs)
);
},
{
closed = 1;
nodes = (
(780,293,o),
(789,302,o),
(789,313,cs),
(789,536,ls),
(789,547,o),
(780,556,o),
(769,556,cs),
(758,556,o),
(749,547,o),
(749,536,cs),
(749,313,ls),
(749,302,o),
(758,293,o),
(769,293,cs)
);
},
{
closed = 1;
nodes = (
(700,475,o),
(709,484,o),
(709,495,cs),
(709,536,ls),
(709,547,o),
(700,556,o),
(689,556,cs),
(678,556,o),
(669,547,o),
(669,536,cs),
(669,495,ls),
(669,484,o),
(678,475,o),
(689,475,cs)
);
},
{
closed = 1;
nodes = (
(793,576,ls),
(803,576,o),
(813,585,o),
(813,596,cs),
(813,607,o),
(803,616,o),
(793,616,cs),
(589,616,ls),
(578,616,o),
(569,607,o),
(569,596,cs),
(569,585,o),
(578,576,o),
(589,576,cs)
);
},
{
closed = 1;
nodes = (
(640,587,o),
(649,596,o),
(649,607,cs),
(649,662,o),
(678,749,o),
(774,749,cs),
(906,749,ls),
(917,749,o),
(926,758,o),
(926,769,cs),
(926,780,o),
(917,789,o),
(906,789,cs),
(774,789,ls),
(644,789,o),
(609,670,o),
(609,607,cs),
(609,596,o),
(618,587,o),
(629,587,cs)
);
},
{
closed = 1;
nodes = (
(762,590,o),
(771,599,o),
(771,610,cs),
(771,629,o),
(781,646,o),
(803,646,cs),
(899,646,ls),
(910,646,o),
(919,655,o),
(919,666,cs),
(919,677,o),
(910,686,o),
(899,686,cs),
(803,686,ls),
(751,686,o),
(731,641,o),
(731,610,cs),
(731,599,o),
(740,590,o),
(751,590,cs)
);
}
);
width = 986;
}
);
},
{
glyphname = Mujer;
lastChange = "2021-09-29 08:09:55 +0000";
layers = (
{
background = {
shapes = (
{
closed = 1;
nodes = (
(219,570,o),
(160,549,o),
(143,494,cs),
(129,449,o),
(61,182,o),
(61,182,cs),
(60,179,o),
(60,176,o),
(60,173,cs),
(63,161,o),
(69,150,o),
(78,143,cs),
(90,135,o),
(102,134,o),
(114,134,cs),
(123,134,o),
(131,141,o),
(133,148,cs),
(170,258,l),
(184,332,l),
(183,241,o),
(149,150,o),
(149,148,cs),
(145,138,o),
(148,129,o),
(155,124,cs),
(158,122,o),
(215,76,o),
(314,76,cs),
(413,76,o),
(470,122,o),
(473,124,cs),
(480,129,o),
(483,138,o),
(479,148,cs),
(479,150,o),
(445,241,o),
(444,332,c),
(458,258,l),
(495,148,ls),
(497,141,o),
(505,134,o),
(514,134,cs),
(526,134,o),
(538,135,o),
(550,143,cs),
(559,150,o),
(565,161,o),
(568,173,cs),
(568,176,o),
(568,179,o),
(567,182,cs),
(567,182,o),
(499,449,o),
(485,494,cs),
(468,549,o),
(409,570,o),
(367,570,c),
(261,570,l)
);
},
{
closed = 1;
nodes = (
(367,530,l),
(399,530,o),
(438,513,o),
(447,482,cs),
(457,448,o),
(521,231,o),
(534,180,c),
(525,176,l),
(458,381,ls),
(455,390,o),
(446,395,o),
(439,395,cs),
(424,395,ls),
(412,395,o),
(404,384,o),
(404,375,cs),
(404,263,o),
(423,181,o),
(436,148,c),
(413,136,o),
(375,116,o),
(314,116,cs),
(253,116,o),
(215,136,o),
(192,148,c),
(205,181,o),
(224,263,o),
(224,375,cs),
(224,384,o),
(216,395,o),
(204,395,cs),
(189,395,ls),
(182,395,o),
(173,390,o),
(170,381,cs),
(103,176,l),
(94,180,l),
(107,231,o),
(171,448,o),
(181,482,cs),
(190,513,o),
(229,530,o),
(261,530,c)
);
},
{
closed = 1;
nodes = (
(257,826,o),
(212,781,o),
(212,729,cs),
(212,705,o),
(193,686,o),
(186,682,cs),
(175,676,o),
(177,662,o),
(183,655,cs),
(188,649,o),
(216,592,o),
(314,592,cs),
(412,592,o),
(440,649,o),
(445,655,cs),
(451,662,o),
(453,676,o),
(442,682,cs),
(435,686,o),
(416,705,o),
(416,729,cs),
(416,781,o),
(371,826,o),
(314,826,cs)
);
},
{
closed = 1;
nodes = (
(251,-166,ls),
(251,-167,o),
(241,-166,o),
(234,-165,c),
(235,70,l),
(196,81,l),
(194,-179,ls),
(194,-186,o),
(198,-192,o),
(203,-195,cs),
(223,-209,o),
(263,-214,o),
(284,-193,cs),
(288,-189,o),
(290,-185,o),
(290,-180,cs),
(300,0,l),
(302,59,l),
(266,64,l)
);
},
{
closed = 1;
nodes = (
(378,-166,ls),
(378,-167,o),
(388,-166,o),
(395,-165,c),
(394,70,l),
(433,81,l),
(435,-179,ls),
(435,-186,o),
(431,-192,o),
(426,-195,cs),
(406,-209,o),
(366,-214,o),
(345,-193,cs),
(341,-189,o),
(339,-185,o),
(339,-180,cs),
(329,0,l),
(327,59,l),
(363,64,l)
);
},
{
closed = 1;
nodes = (
(349,786,o),
(376,761,o),
(376,729,cs),
(376,700,o),
(388,683,o),
(399,671,c),
(393,632,o),
(314,632,cs),
(235,632,o),
(229,671,l),
(240,683,o),
(252,700,o),
(252,729,cs),
(252,761,o),
(279,786,o),
(314,786,cs)
);
}
